<?xml version="1.0" standalone="no"?>
<!DOCTYPE svg PUBLIC "-//W3C//DTD SVG 1.1//EN" "http://www.w3.org/Graphics/SVG/1.1/DTD/svg11.dtd" >
<svg xmlns="http://www.w3.org/2000/svg">
<metadata>Generated by IcoMoon</metadata>
<defs>
<font id="icomoon" horiz-adv-x="1024">
<font-face units-per-em="1024" ascent="960" descent="-64" />
<missing-glyph horiz-adv-x="1024" />
<glyph unicode="&#x20;" horiz-adv-x="512" d="" />
<glyph unicode="&#xe900;" glyph-name="xcloud001" d="M856.064 558.592l-333.824 172.032c-8.192 4.096-20.48 4.096-28.672 0l-327.68-172.032c-10.24-6.144-16.384-16.384-16.384-26.624s6.144-22.528 16.384-26.624l120.832-65.536v-155.648c0-4.096 22.528-122.88 217.088-122.88 190.464 0 231.424 112.64 231.424 116.736l2.048 4.096v6.144c0 63.488 0 122.88 0 151.552l118.784 65.536c10.24 6.144 16.384 16.384 16.384 26.624 0 12.288-6.144 22.528-16.384 26.624zM677.888 294.4c-8.192-16.384-47.104-71.68-172.032-71.68-129.024 0-151.552 59.392-155.648 69.632v112.64l149.504-81.92c4.096-2.048 10.24-4.096 14.336-4.096 6.144 0 10.24 2.048 14.336 4.096l147.456 81.92c2.048-28.672 2.048-67.584 2.048-110.592zM514.048 384.512l-268.288 145.408 262.144 137.216 268.288-137.216-262.144-145.408z" />
<glyph unicode="&#xe901;" glyph-name="xcloud002" d="M483.328 386.56h-45.056l2.048 43.008 319.488 321.536 43.008-45.056zM784.384 142.848h-544.768c-16.384 0-30.72 14.336-30.72 30.72v548.864c0 16.384 14.336 30.72 30.72 30.72h434.176l-61.44-61.44h-342.016v-487.424h485.376v350.208l61.44 61.44v-444.416c-2.048-14.336-14.336-28.672-32.768-28.672z" />
<glyph unicode="&#xe902;" glyph-name="xcloud003" d="M786.432 767.488h-548.864c-8.192 0-16.384-4.096-22.528-8.192s-8.192-14.336-8.192-22.528v-428.032c0-16.384 14.336-30.72 30.72-30.72h245.76v-86.016h-133.12c-16.384 0-30.72-14.336-30.72-30.72s14.336-30.72 30.72-30.72h327.68c16.384 0 30.72 14.336 30.72 30.72s-14.336 30.72-30.72 30.72h-133.12v86.016h241.664c16.384 0 30.72 14.336 30.72 30.72v428.032c0 16.384-14.336 30.72-30.72 30.72zM755.712 337.408h-487.424v366.592h487.424v-366.592zM452.608 624.128v-198.656l143.36 90.112z" />
<glyph unicode="&#xe903;" glyph-name="xcloud004" d="M811.008 634.368c-6.144 6.144-14.336 8.192-22.528 8.192 0 0 0 0 0 0h-116.736v69.632c0 16.384-14.336 30.72-30.72 30.72h-260.096c-16.384 0-30.72-14.336-30.72-30.72v-69.632h-114.688c-16.384 0-30.72-14.336-30.72-30.72v-428.032c0-16.384 14.336-30.72 30.72-30.72h552.96c16.384 0 30.72 14.336 30.72 30.72v428.032c0 8.192-4.096 16.384-8.192 22.528zM411.648 681.472h200.704v-38.912h-200.704v38.912zM757.76 581.12v-120.832h-184.32v18.432h-122.88v-18.432h-184.32v118.784l491.52 2.048zM266.24 214.528v186.368h184.32v-22.528h122.88v22.528h184.32v-186.368h-491.52z" />
<glyph unicode="&#xe904;" glyph-name="xcloud005" d="M796.672 579.072l-167.936 159.744c-12.288 12.288-30.72 10.24-43.008 0l-358.4-368.64c-6.144-6.144-8.192-14.336-8.192-22.528v-167.936c0-16.384 14.336-30.72 30.72-30.72h163.84c8.192 0 16.384 4.096 22.528 10.24l360.448 376.832c6.144 6.144 8.192 14.336 8.192 22.528s-2.048 14.336-8.192 20.48zM296.96 353.792l247.808 256 124.928-116.736-245.76-256-126.976 116.736zM280.576 312.832l112.64-104.448h-112.64v104.448zM698.368 521.728l-124.928 116.736 34.816 34.816 122.88-116.736-32.768-34.816z" />
<glyph unicode="&#xe905;" glyph-name="xcloud006" d="M512 136.704c-172.032 0-311.296 139.264-311.296 311.296s139.264 311.296 311.296 311.296 311.296-139.264 311.296-311.296c0-172.032-139.264-311.296-311.296-311.296zM512 697.856c-137.216 0-249.856-112.64-249.856-249.856s112.64-249.856 249.856-249.856 249.856 112.64 249.856 249.856c0 137.216-112.64 249.856-249.856 249.856zM626.688 304.64h-61.44l2.048 133.12-24.576-59.392c-4.096-12.288-16.384-18.432-28.672-18.432s-22.528 8.192-28.672 18.432l-20.48 53.248v-126.976h-61.44v288.768c0 14.336 10.24 26.624 24.576 30.72 14.336 2.048 28.672-4.096 34.816-18.432l53.248-131.072 57.344 131.072c6.144 14.336 20.48 20.48 34.816 18.432s24.576-16.384 24.576-30.72l-6.144-288.768z" />
<glyph unicode="&#xe906;" glyph-name="xcloud007" d="M245.76 640.512h61.44v-485.376h-61.44v485.376zM243.712 738.816h65.536v-65.536h-65.536v65.536zM348.16 642.56v-206.848l163.84 49.152v112.64zM552.96 560.64v-163.84l227.328 81.92z" />
<glyph unicode="&#xe907;" glyph-name="xcloud008" d="M786.432 140.8h-546.816c-16.384 0-30.72 14.336-30.72 30.72l-2.048 552.96c0 8.192 4.096 16.384 8.192 22.528 6.144 6.144 14.336 8.192 22.528 8.192h548.864c16.384 0 30.72-14.336 30.72-30.72v-552.96c0-16.384-14.336-30.72-30.72-30.72zM270.336 202.24h485.376v491.52h-487.424l2.048-491.52zM411.648 591.36v-245.76h204.8v83.968h-118.784v161.792z" />
<glyph unicode="&#xe908;" glyph-name="xcloud009" d="M376.832 257.536c-8.192 0-16.384 2.048-22.528 8.192l-157.696 161.792c-12.288 12.288-12.288 30.72 0 43.008l157.696 159.744c12.288 12.288 30.72 12.288 43.008 0s12.288-30.72 0-43.008l-137.216-139.264 139.264-139.264c12.288-12.288 12.288-30.72 0-43.008-6.144-4.096-14.336-8.192-22.528-8.192zM647.168 257.536c-8.192 0-16.384 2.048-22.528 8.192-12.288 12.288-12.288 30.72 0 43.008l139.264 139.264-137.216 137.216c-12.288 12.288-12.288 30.72 0 43.008s30.72 12.288 43.008 0l159.744-159.744c12.288-12.288 12.288-30.72 0-43.008l-159.744-159.744c-8.192-4.096-14.336-8.192-22.528-8.192zM434.176 335.36c-8.192 0-16.384 2.048-22.528 8.192-12.288 12.288-12.288 30.72 0 43.008l155.648 155.648c12.288 12.288 30.72 12.288 43.008 0s12.288-30.72 0-43.008l-153.6-153.6c-6.144-6.144-14.336-10.24-22.528-10.24z" />
<glyph unicode="&#xe909;" glyph-name="xcloud010" d="M350.208 671.232h102.4v-61.44h-102.4v61.44zM575.488 671.232h102.4v-61.44h-102.4v61.44zM350.208 568.832h102.4v-61.44h-102.4v61.44zM575.488 568.832h102.4v-61.44h-102.4v61.44zM350.208 466.432h102.4v-61.44h-102.4v61.44zM575.488 466.432h102.4v-61.44h-102.4v61.44zM350.208 364.032h102.4v-61.44h-102.4v61.44zM575.488 364.032h102.4v-61.44h-102.4v61.44zM788.48 773.632h-550.912c-16.384 0-30.72-14.336-30.72-30.72l-2.048-589.824c0-8.192 4.096-16.384 8.192-22.528 6.144-6.144 14.336-8.192 22.528-8.192h550.912c16.384 0 30.72 14.336 30.72 30.72v589.824c2.048 16.384-12.288 30.72-28.672 30.72zM757.76 183.808h-202.752v57.344h-81.92v-57.344h-206.848l2.048 528.384h489.472v-528.384z" />
<glyph unicode="&#xe90a;" glyph-name="xcloud011" d="M761.856 527.872c0 137.216-112.64 249.856-249.856 249.856s-249.856-112.64-249.856-249.856c0-92.16 51.2-174.080 124.928-217.088v-163.84c0-16.384 14.336-30.72 30.72-30.72h182.272c16.384 0 30.72 14.336 30.72 30.72v161.792c77.824 43.008 131.072 124.928 131.072 219.136zM448.512 179.712v26.624h120.832v-26.624h-120.832zM569.344 245.248h-120.832v40.96c20.48-6.144 40.96-8.192 63.488-8.192 20.48 0 38.912 2.048 57.344 6.144v-38.912zM512 339.456c-104.448 0-188.416 83.968-188.416 188.416s83.968 188.416 188.416 188.416 188.416-83.968 188.416-188.416c0-102.4-83.968-188.416-188.416-188.416z" />
<glyph unicode="&#xe90b;" glyph-name="xcloud012" d="M235.52 136.704c-6.144 0-12.288 2.048-16.384 4.096-8.192 6.144-14.336 16.384-14.336 26.624l2.048 559.104c0 16.384 14.336 30.72 30.72 30.72h550.912c16.384 0 30.72-14.336 30.72-30.72v-557.056c0-10.24-6.144-20.48-14.336-26.624s-20.48-6.144-30.72-2.048l-258.048 126.976-266.24-126.976c-4.096-2.048-8.192-4.096-14.336-4.096zM268.288 697.856l-2.048-481.28 235.52 112.64c8.192 4.096 18.432 4.096 26.624 0l229.376-110.592v479.232h-489.472zM655.36 554.496h-266.24c-16.384 0-30.72 14.336-30.72 30.72s14.336 30.72 30.72 30.72h266.24c16.384 0 30.72-14.336 30.72-30.72s-12.288-30.72-30.72-30.72zM655.36 431.616h-266.24c-16.384 0-30.72 14.336-30.72 30.72s14.336 30.72 30.72 30.72h266.24c16.384 0 30.72-14.336 30.72-30.72s-14.336-30.72-30.72-30.72z" />
<glyph unicode="&#xe90c;" glyph-name="xcloud013" d="M796.672 97.792h-569.344c-10.24 0-20.48 6.144-26.624 16.384s-6.144 22.528 0 30.72l122.88 202.752v268.288h-49.152c-16.384 0-30.72 14.336-30.72 30.72s14.336 30.72 30.72 30.72h79.872c16.384 0 30.72-14.336 30.72-30.72v-307.2c0-6.144-2.048-10.24-4.096-16.384l-100.352-163.84h462.848l-94.208 165.888c-2.048 4.096-4.096 10.24-4.096 14.336v307.2c0 16.384 14.336 30.72 30.72 30.72h69.632c16.384 0 30.72-14.336 30.72-30.72s-14.336-30.72-30.72-30.72h-38.912v-266.24l116.736-204.8c6.144-10.24 6.144-20.48 0-30.72s-14.336-16.384-26.624-16.384zM454.656 445.952v-139.264l-51.2-79.872h229.376l-55.296 81.92v137.216zM512 622.080c0-15.835-12.837-28.672-28.672-28.672s-28.672 12.837-28.672 28.672c0 15.835 12.837 28.672 28.672 28.672s28.672-12.837 28.672-28.672zM626.688 736.768c0-33.932-27.508-61.44-61.44-61.44s-61.44 27.508-61.44 61.44c0 33.932 27.508 61.44 61.44 61.44s61.44-27.508 61.44-61.44z" />
<glyph unicode="&#xe90d;" glyph-name="xcloud014" d="M817.152 343.552v378.88c0 8.192-4.096 16.384-8.192 22.528-6.144 6.144-14.336 8.192-22.528 8.192h-548.864c-16.384 0-30.72-14.336-30.72-30.72v-548.864c0-16.384 14.336-30.72 30.72-30.72h376.832l202.752 200.704zM268.288 691.712h485.376v-348.16l-139.264 2.048v-139.264h-346.112v485.376zM346.112 593.408h327.68v-40.96h-327.68v40.96zM346.112 509.44h327.68v-40.96h-327.68v40.96zM346.112 427.52h163.84v-40.96h-163.84v40.96z" />
<glyph unicode="&#xe90e;" glyph-name="xcloud015" d="M755.712 306.688v120.832c0 12.288-8.192 20.48-20.48 20.48h-202.752v108.544h81.92v200.704h-202.752v-202.752h79.872v-108.544h-204.8c-12.288 0-20.48-8.192-20.48-20.48v-120.832h-61.44v-167.936h167.936v167.936h-65.536v100.352h184.32v-100.352h-61.44v-167.936h167.936v167.936h-65.536v100.352h182.272v-100.352h-63.488v-167.936h167.936v167.936h-63.488zM329.728 265.728v-86.016h-83.968v86.016h83.968zM557.056 265.728v-86.016h-86.016v86.016h86.016zM778.24 179.712h-86.016v86.016h86.016v-86.016z" />
<glyph unicode="&#xe90f;" glyph-name="xcloud016" d="M313.344 118.272c-6.144 0-12.288 2.048-18.432 6.144-8.192 6.144-14.336 18.432-12.288 30.72l38.912 206.848-143.36 145.408c-8.192 8.192-10.24 20.48-8.192 30.72 4.096 10.24 12.288 18.432 24.576 20.48l202.752 30.72 81.92 169.984c4.096 10.24 16.384 16.384 26.624 18.432 0 0 0 0 0 0 12.288 0 22.528-6.144 26.624-16.384l88.064-169.984 202.752-32.768c12.288-2.048 20.48-10.24 24.576-20.48s0-22.528-8.192-30.72l-141.312-141.312 28.672-204.8c2.048-10.24-4.096-22.528-12.288-28.672s-20.48-8.192-30.72-4.096l-174.080 79.872-182.272-86.016c-4.096-2.048-8.192-4.096-14.336-4.096zM264.192 507.392l112.64-114.688c6.144-6.144 10.24-16.384 8.192-26.624l-30.72-163.84 141.312 65.536c8.192 4.096 18.432 4.096 26.624 0l137.216-61.44-24.576 167.936c-2.048 10.24 2.048 20.48 10.24 26.624l112.64 106.496-157.696 26.624c-10.24 2.048-18.432 8.192-22.528 16.384l-67.584 129.024-61.44-129.024c-4.096-8.192-12.288-16.384-22.528-16.384l-161.792-26.624z" />
<glyph unicode="&#xe910;" glyph-name="xcloud017" d="M507.904 433.664c36.864 28.672 61.44 73.728 61.44 124.928 0 88.064-71.68 159.744-159.744 159.744s-159.744-71.68-159.744-159.744c0-51.2 24.576-96.256 61.44-124.928-88.064-36.864-149.504-124.928-149.504-225.28 0-16.384 14.336-30.72 30.72-30.72h428.032c16.384 0 30.72 14.336 30.72 30.72 6.144 100.352-55.296 188.416-143.36 225.28zM411.648 656.896c53.248 0 98.304-43.008 98.304-98.304s-43.008-98.304-98.304-98.304c-55.296 0-98.304 43.008-98.304 98.304s45.056 98.304 98.304 98.304zM231.424 239.104c14.336 86.016 90.112 153.6 180.224 153.6s165.888-65.536 180.224-153.6h-360.448zM829.44 177.664h-116.736c-16.384 0-30.72 14.336-30.72 30.72s14.336 30.72 30.72 30.72h83.968c-14.336 86.016-90.112 153.6-180.224 153.6-16.384 0-30.72 14.336-30.72 30.72s14.336 30.72 30.72 30.72c53.248 0 98.304 43.008 98.304 98.304s-43.008 96.256-98.304 96.256c-16.384 0-30.72 14.336-30.72 30.72s14.336 30.72 30.72 30.72c88.064 0 159.744-71.68 159.744-157.696 0-47.104-20.48-90.112-55.296-120.832 83.968-38.912 141.312-122.88 141.312-221.184-2.048-18.432-14.336-32.768-32.768-32.768z" />
<glyph unicode="&#xe911;" glyph-name="xcloud018" d="M614.4 142.848h-376.832c-16.384 0-30.72 14.336-30.72 30.72v548.864c0 16.384 14.336 30.72 30.72 30.72h548.864c8.192 0 16.384-4.096 22.528-8.192 6.144-6.144 8.192-14.336 8.192-22.528v-378.88h-61.44v348.16h-487.424v-487.424h346.112v-61.44zM614.4 345.6v-202.752l202.752 200.704zM655.36 521.728h-153.6v71.68c0 4.096-2.048 8.192-6.144 10.24s-8.192 0-10.24-2.048l-129.024-114.688c-2.048-2.048-4.096-4.096-4.096-8.192 0-2.048 0-6.144 2.048-8.192l131.072-131.072c2.048-2.048 4.096-2.048 8.192-2.048 2.048 0 2.048 0 4.096 0 4.096 2.048 6.144 6.144 6.144 10.24v69.632h151.552c6.144 0 10.24 4.096 10.24 10.24v83.968c0 6.144-6.144 10.24-10.24 10.24z" />
<glyph unicode="&#xe912;" glyph-name="xcloud019" d="M753.664 613.888h-26.624v153.6c0 16.384-14.336 30.72-30.72 30.72h-368.64c-16.384 0-30.72-14.336-30.72-30.72v-153.6h-26.624c-53.248 0-96.256-45.056-96.256-100.352v-188.416c0-55.296 43.008-100.352 96.256-100.352h26.624v-96.256c0-16.384 14.336-30.72 30.72-30.72h368.64c16.384 0 30.72 14.336 30.72 30.72v96.256h26.624c53.248 0 96.256 45.056 96.256 100.352v186.368c0 57.344-43.008 102.4-96.256 102.4zM358.4 736.768h307.2v-122.88h-307.2v122.88zM665.6 159.232h-307.2v184.32h307.2v-184.32zM788.48 325.12c0-22.528-16.384-38.912-34.816-38.912h-26.624v88.064c0 16.384-14.336 30.72-30.72 30.72h-368.64c-16.384 0-30.72-14.336-30.72-30.72v-88.064h-26.624c-18.432 0-34.816 18.432-34.816 38.912v186.368c0 22.528 16.384 38.912 34.816 38.912h483.328c18.432 0 34.816-18.432 34.816-38.912v-186.368z" />
<glyph unicode="&#xe913;" glyph-name="xcloud020" d="M798.72 597.504c0 83.968-49.152 149.504-112.64 149.504s-112.64-67.584-112.64-149.504c0-65.536 30.72-120.832 73.728-141.312v-245.76h-260.096v243.712h69.632c8.192 0 16.384 4.096 22.528 8.192s8.192 14.336 8.192 22.528v225.28c0 16.384-14.336 30.72-30.72 30.72 0 0 0 0 0 0-16.384 0-30.72-14.336-30.72-30.72v-194.56h-38.912v196.608c0 16.384-14.336 30.72-30.72 30.72s-30.72-14.336-30.72-30.72v-196.608h-38.912v194.56c0 16.384-14.336 30.72-30.72 30.72 0 0 0 0 0 0-16.384 0-30.72-14.336-30.72-30.72v-225.28c0-16.384 14.336-30.72 30.72-30.72h69.632v-274.432c0-16.384 14.336-30.72 30.72-30.72h321.536c16.384 0 30.72 14.336 30.72 30.72v270.336c51.2 14.336 90.112 73.728 90.112 147.456z" />
<glyph unicode="&#xe914;" glyph-name="xcloud021" d="M227.328 542.208h122.88v-307.2h-122.88v307.2zM227.328 192h122.88v-40.96h-122.88v40.96zM389.12 624.128h165.888v-391.168h-165.888v391.168zM595.968 519.68h202.752v-288.768h-202.752v288.768zM389.12 194.048h165.888v-43.008h-165.888v43.008zM593.92 192h204.8v-38.912h-204.8v38.912zM350.208 583.168c-8.192 0-110.592 0-124.928 0v59.392c0 12.288 8.192 20.48 20.48 20.48h83.968c12.288 0 20.48-8.192 20.48-20.48v-59.392zM552.96 663.040c-8.192 0-145.408 0-161.792 0v59.392c0 12.288 8.192 20.48 20.48 20.48h120.832c12.288 0 20.48-8.192 20.48-20.48v-59.392zM798.72 562.688c-8.192 0-188.416 0-202.752 0v100.352c0 12.288 8.192 20.48 20.48 20.48h161.792c12.288 0 20.48-8.192 20.48-20.48v-100.352z" />
<glyph unicode="&#xe915;" glyph-name="xcloud022" d="M477.184 556.544c0-21.491-17.421-38.912-38.912-38.912s-38.912 17.421-38.912 38.912c0 21.491 17.421 38.912 38.912 38.912s38.912-17.421 38.912-38.912zM634.88 554.496c0-21.491-17.421-38.912-38.912-38.912s-38.912 17.421-38.912 38.912c0 21.491 17.421 38.912 38.912 38.912s38.912-17.421 38.912-38.912zM524.288 355.84c-2.048 0-2.048 0 0 0-65.536 0-110.592 55.296-112.64 57.344-8.192 8.192-6.144 22.528 2.048 28.672s22.528 6.144 28.672-2.048v0c0 0 34.816-43.008 79.872-43.008v0c26.624 0 51.2 14.336 75.776 43.008 8.192 8.192 20.48 10.24 28.672 2.048s10.24-20.48 2.048-28.672c-30.72-38.912-67.584-57.344-104.448-57.344zM808.96 497.152c0 163.84-133.12 296.96-296.96 296.96s-296.96-133.12-296.96-296.96 133.12-296.96 296.96-296.96v-98.304l186.368 165.888c4.096 2.048 6.144 6.144 10.24 8.192l10.24 8.192c55.296 55.296 90.112 131.072 90.112 212.992zM276.48 497.152c0 129.024 106.496 235.52 235.52 235.52s235.52-106.496 235.52-235.52-106.496-235.52-235.52-235.52-235.52 106.496-235.52 235.52z" />
<glyph unicode="&#xe916;" glyph-name="xcloud023" d="M374.784 132.608c-4.096 0-8.192 0-14.336 2.048-10.24 6.144-16.384 16.384-16.384 28.672v88.064h-102.4c-16.384 0-30.72 14.336-30.72 30.72v450.56c0 16.384 14.336 30.72 30.72 30.72h540.672c16.384 0 30.72-14.336 30.72-30.72v-448.512c0-16.384-14.336-30.72-30.72-30.72h-245.76l-143.36-112.64c-4.096-6.144-12.288-8.192-18.432-8.192zM272.384 312.832h102.4c16.384 0 30.72-14.336 30.72-30.72v-55.296l100.352 79.872c6.144 4.096 12.288 6.144 18.432 6.144h225.28v389.12h-477.184v-389.12zM415.744 517.632c0-22.622-18.338-40.96-40.96-40.96s-40.96 18.338-40.96 40.96c0 22.622 18.338 40.96 40.96 40.96s40.96-18.338 40.96-40.96zM557.056 519.68c0-22.622-18.338-40.96-40.96-40.96s-40.96 18.338-40.96 40.96c0 22.622 18.338 40.96 40.96 40.96s40.96-18.338 40.96-40.96zM700.416 517.632c0-22.622-18.338-40.96-40.96-40.96s-40.96 18.338-40.96 40.96c0 22.622 18.338 40.96 40.96 40.96s40.96-18.338 40.96-40.96z" />
<glyph unicode="&#xe917;" glyph-name="xcloud024" d="M811.008 755.2h-598.016c-16.384 0-30.72-14.336-30.72-30.72v-552.96c0-16.384 14.336-30.72 30.72-30.72h598.016c16.384 0 30.72 14.336 30.72 30.72v552.96c0 16.384-14.336 30.72-30.72 30.72zM780.288 693.76v-100.352l-262.144-167.936-272.384 167.936v100.352h534.528zM243.712 202.24v319.488l272.384-167.936 262.144 165.888v-317.44h-534.528z" />
<glyph unicode="&#xe918;" glyph-name="xcloud025" d="M309.248 753.152h61.44v-61.44h-61.44v61.44zM657.408 753.152h61.44v-61.44h-61.44v61.44zM788.48 753.152c-16.384 0-30.72-14.336-30.72-30.72v-73.728h-139.264v100.352h-206.848v-100.352h-145.408v69.632c0 16.384-14.336 30.72-30.72 30.72s-30.72-10.24-30.72-26.624v-548.864c0-16.384 14.336-30.72 30.72-30.72h552.96c16.384 0 30.72 14.336 30.72 30.72v548.864c0 20.48-14.336 30.72-30.72 30.72zM266.24 204.288v387.072h491.52v-385.024h-491.52zM350.208 507.392h83.968v-83.968h-83.968v83.968zM471.040 507.392h83.968v-83.968h-83.968v83.968zM595.968 507.392h83.968v-83.968h-83.968v83.968zM350.208 364.032h83.968v-83.968h-83.968v83.968zM473.088 364.032h83.968v-83.968h-83.968v83.968zM595.968 364.032h83.968v-83.968h-83.968v83.968z" />
<glyph unicode="&#xe919;" glyph-name="xcloud026" d="M776.192 202.24h-501.76c-4.096 2.048-112.64 47.104-114.688 145.408 0 2.048-6.144 92.16 86.016 149.504 2.048 40.96 22.528 131.072 133.12 184.32l4.096 2.048c2.048 0 30.72 10.24 71.68 10.24 51.2 0 120.832-14.336 176.128-81.92 24.576-4.096 73.728-16.384 110.592-55.296 26.624-28.672 40.96-65.536 40.96-110.592 26.624-16.384 75.776-51.2 81.92-106.496 4.096-45.056-22.528-90.112-77.824-131.072l-10.24-6.144zM292.864 263.68h462.848c24.576 18.432 49.152 45.056 47.104 69.632-4.096 32.768-49.152 57.344-65.536 65.536l-18.432 8.192 2.048 20.48c2.048 36.864-6.144 65.536-24.576 86.016-30.72 34.816-81.92 36.864-81.92 36.864h-14.336l-8.192 12.288c-34.816 47.104-79.872 69.632-137.216 69.632-24.576 0-45.056-4.096-51.2-6.144-104.448-51.2-96.256-141.312-96.256-143.36l2.048-20.48-18.432-10.24c-71.68-34.816-67.584-98.304-67.584-100.352 0-49.152 53.248-79.872 69.632-88.064zM491.52 339.456c-2.048 0-4.096 0-6.144 0h-2.048c-20.48 4.096-36.864 16.384-47.104 32.768-20.48 32.768-10.24 73.728-10.24 77.824l2.048 4.096c18.432 32.768 38.912 49.152 61.44 49.152v0c36.864 0 59.392-43.008 61.44-47.104l-36.864-18.432c-6.144 10.24-18.432 24.576-26.624 24.576v0c-6.144 0-14.336-6.144-24.576-24.576-2.048-10.24-6.144-49.152 24.576-57.344 4.096 0 22.528 0 28.672 14.336l36.864-16.384c-10.24-30.72-43.008-38.912-61.44-38.912z" />
<glyph unicode="&#xe91a;" glyph-name="xcloud027" d="M768 157.184h-176.128c-16.384 0-30.72 14.336-30.72 30.72v151.552h-83.968v-151.552c0-16.384-14.336-30.72-30.72-30.72h-190.464c-16.384 0-30.72 14.336-30.72 30.72v286.72c0 8.192 4.096 16.384 10.24 22.528l256 233.472c12.288 10.24 30.72 10.24 40.96 0l256-237.568c6.144-6.144 10.24-14.336 10.24-22.528v-282.624c0-16.384-12.288-30.72-30.72-30.72zM622.592 218.624h114.688v237.568l-225.28 210.944-225.28-204.8v-243.712h129.024v151.552c0 16.384 14.336 30.72 30.72 30.72h145.408c16.384 0 30.72-14.336 30.72-30.72v-151.552z" />
<glyph unicode="&#xe91b;" glyph-name="xcloud028" d="M825.344 669.184l-81.92 71.68c-10.24 10.24-26.624 10.24-38.912 2.048l-145.408-104.448c-16.384 4.096-30.72 6.144-47.104 6.144-88.064 0-153.6-53.248-157.696-55.296-75.776-61.44-75.776-122.88-75.776-176.128 0-14.336 0-30.72-2.048-47.104-6.144-59.392-59.392-104.448-59.392-104.448l-30.72-24.576 30.72-24.576c53.248-40.96 124.928-63.488 206.848-63.488 38.912 0 77.824 4.096 118.784 14.336 157.696 49.152 182.272 210.944 184.32 233.472 8.192 32.768 4.096 63.488-4.096 90.112l106.496 139.264c10.24 14.336 8.192 32.768-4.096 43.008zM667.648 409.088v-4.096c0-6.144-16.384-143.36-141.312-182.272-88.064-22.528-178.176-14.336-241.664 18.432 22.528 24.576 49.152 65.536 53.248 116.736 2.048 18.432 2.048 36.864 2.048 53.248 0 51.2 0 86.016 53.248 129.024 0 0 53.248 40.96 118.784 40.96 26.624 0 53.248-8.192 77.824-20.48 0 0 100.352-63.488 77.824-151.552zM692.224 548.352c-24.576 32.768-53.248 55.296-65.536 61.44l94.208 67.584 43.008-36.864-71.68-92.16z" />
<glyph unicode="&#xe91c;" glyph-name="xcloud029" d="M512 130.56c-174.080 0-317.44 143.36-317.44 317.44s143.36 317.44 317.44 317.44 317.44-143.36 317.44-317.44-143.36-317.44-317.44-317.44zM512 704c-141.312 0-256-114.688-256-256s114.688-256 256-256 256 114.688 256 256-114.688 256-256 256zM616.448 433.664l40.96 147.456-155.648-30.72h-2.048l-10.24-2.048c-30.72-8.192-55.296-32.768-65.536-61.44v0l-45.056-163.84 153.6 30.72c4.096 0 6.144 2.048 10.24 2.048l6.144 2.048c34.816 8.192 61.44 38.912 67.584 75.776zM518.144 411.136c-20.48 0-38.912 16.384-38.912 38.912 0 20.48 16.384 38.912 38.912 38.912 20.48 0 38.912-16.384 38.912-38.912 0-20.48-18.432-38.912-38.912-38.912z" />
<glyph unicode="&#xe91d;" glyph-name="xcloud030" d="M829.44 384.512c-12.288 24.576-24.576 47.104-36.864 69.632-2.048 6.144-6.144 10.24-8.192 14.336 8.192 22.528 14.336 45.056 14.336 69.632 4.096 116.736-86.016 215.040-202.752 219.136-110.592 4.096-196.608-59.392-212.992-155.648-108.544-10.24-192.512-100.352-192.512-210.944 0-40.96 12.288-79.872 34.816-114.688-4.096-18.432-8.192-47.104-12.288-69.632-2.048-12.288-4.096-24.576-6.144-32.768-2.048-12.288 2.048-22.528 12.288-30.72 6.144-4.096 12.288-6.144 18.432-6.144 4.096 0 10.24 2.048 14.336 4.096 22.528 12.288 47.104 26.624 67.584 40.96 4.096 4.096 10.24 6.144 14.336 8.192 22.528-8.192 45.056-12.288 69.632-12.288 98.304 0 180.224 67.584 204.8 157.696 30.72 2.048 61.44 12.288 88.064 28.672 18.432-4.096 47.104-10.24 69.632-16.384 12.288-2.048 24.576-6.144 32.768-8.192 12.288-2.048 22.528 2.048 30.72 10.24 4.096 12.288 6.144 24.576 0 34.816zM401.408 241.152c-20.48 0-40.96 4.096-59.392 12.288-8.192 4.096-20.48 4.096-28.672-2.048s-18.432-12.288-28.672-18.432c-2.048-2.048-4.096-2.048-6.144-4.096 4.096 18.432 6.144 36.864 8.192 49.152 2.048 8.192 0 16.384-6.144 22.528-18.432 26.624-28.672 57.344-28.672 90.112 0 81.92 67.584 149.504 149.504 149.504 57.344 0 106.496-30.72 131.072-77.824 12.288-26.624 18.432-61.44 16.384-94.208 0-2.048 0-4.096 0-6.144-12.288-67.584-73.728-120.832-147.456-120.832zM694.272 427.52c-8.192 2.048-16.384 0-22.528-4.096-18.432-12.288-36.864-20.48-57.344-22.528-2.048 30.72-8.192 59.392-22.528 86.016-8.192 18.432-18.432 34.816-30.72 49.152-26.624 26.624-63.488 59.392-112.64 67.584 14.336 57.344 65.536 94.208 139.264 94.208 2.048 0 6.144 0 8.192 0 81.92-4.096 147.456-73.728 143.36-155.648 0-20.48-6.144-40.96-14.336-59.392-4.096-8.192-4.096-20.48 0-28.672s10.24-18.432 16.384-28.672c2.048-2.048 2.048-4.096 4.096-6.144-20.48 2.048-38.912 6.144-51.2 8.192z" />
<glyph unicode="&#xe91e;" glyph-name="xcloud031" d="M798.72 646.656h-221.184l88.064 86.016c12.288 12.288 12.288 30.72 0 43.008s-30.72 12.288-43.008 0l-116.736-114.688-100.352 81.92c-12.288 10.24-32.768 8.192-43.008-4.096s-8.192-32.768 4.096-43.008l61.44-49.152h-202.752c-16.384 0-30.72-14.336-30.72-30.72v-409.6c0-16.384 14.336-30.72 30.72-30.72h38.912l-8.192-28.672c-4.096-16.384 6.144-32.768 22.528-36.864 2.048 0 6.144 0 8.192 0 14.336 0 26.624 8.192 28.672 22.528l12.288 43.008h368.64l12.288-43.008c4.096-14.336 16.384-22.528 28.672-22.528 2.048 0 6.144 0 8.192 0 16.384 4.096 26.624 20.48 22.528 36.864l-8.192 28.672h38.912c16.384 0 30.72 14.336 30.72 30.72v409.6c0 18.432-14.336 30.72-30.72 30.72zM768 237.056h-512v348.16h512v-348.16zM456.704 493.056l151.552-86.016-151.552-86.016z" />
<glyph unicode="&#xe91f;" glyph-name="xcloud032" d="M514.048 245.248c-112.64 0-204.8 92.16-204.8 204.8s92.16 204.8 204.8 204.8 204.8-92.16 204.8-204.8-92.16-204.8-204.8-204.8zM514.048 593.408c-79.872 0-143.36-63.488-143.36-143.36s63.488-143.36 143.36-143.36 143.36 63.488 143.36 143.36-63.488 143.36-143.36 143.36zM507.904 679.424c-16.384 0-30.72 14.336-30.72 30.72v67.584c0 16.384 14.336 30.72 30.72 30.72s30.72-14.336 30.72-30.72v-67.584c0-18.432-14.336-30.72-30.72-30.72zM512 87.552c-16.384 0-30.72 14.336-30.72 30.72v67.584c0 16.384 14.336 30.72 30.72 30.72s30.72-14.336 30.72-30.72v-67.584c0-16.384-14.336-30.72-30.72-30.72zM266.24 181.76c-8.192 0-14.336 2.048-20.48 8.192-12.288 12.288-12.288 30.72-2.048 43.008l47.104 49.152c12.288 12.288 30.72 12.288 43.008 2.048 12.288-12.288 12.288-30.72 2.048-43.008l-47.104-49.152c-6.144-8.192-14.336-10.24-22.528-10.24zM753.664 181.76c-8.192 0-16.384 4.096-22.528 10.24l-47.104 49.152c-12.288 12.288-10.24 32.768 2.048 43.008 12.288 12.288 30.72 10.24 43.008-2.048l47.104-49.152c12.288-12.288 10.24-32.768-2.048-43.008-6.144-6.144-12.288-8.192-20.48-8.192zM315.392 620.032c-8.192 0-16.384 4.096-22.528 10.24l-47.104 49.152c-12.288 12.288-10.24 32.768 2.048 43.008 12.288 12.288 32.768 10.24 43.008-2.048l47.104-49.152c12.288-12.288 10.24-32.768-2.048-43.008-4.096-6.144-12.288-8.192-20.48-8.192zM174.080 425.472c-16.384 0-30.72 14.336-30.72 30.72s14.336 30.72 30.72 30.72h67.584c16.384 0 30.72-14.336 30.72-30.72s-14.336-30.72-30.72-30.72h-67.584zM782.336 425.472c-16.384 0-30.72 14.336-30.72 30.72s14.336 30.72 30.72 30.72h67.584c16.384 0 30.72-14.336 30.72-30.72s-14.336-30.72-30.72-30.72h-67.584zM710.656 620.032c-8.192 0-14.336 2.048-20.48 8.192-12.288 12.288-12.288 30.72-2.048 43.008l47.104 49.152c12.288 12.288 30.72 12.288 43.008 2.048 12.288-12.288 12.288-30.72 2.048-43.008l-47.104-49.152c-6.144-8.192-14.336-10.24-22.528-10.24z" />
<glyph unicode="&#xe920;" glyph-name="xcloud033" d="M512 763.392c-174.080 0-315.392-141.312-315.392-315.392s141.312-315.392 315.392-315.392 315.392 141.312 315.392 315.392-141.312 315.392-315.392 315.392zM763.904 476.672h-243.712v225.28c126.976-4.096 229.376-102.4 243.712-225.28zM512 194.048c-139.264 0-253.952 114.688-253.952 253.952 0 120.832 86.016 223.232 200.704 247.808v-280.576h305.152c-16.384-124.928-122.88-221.184-251.904-221.184z" />
<glyph unicode="&#xe921;" glyph-name="xcloud034" d="M696.32 763.392h-372.736c-81.92 0-149.504-67.584-149.504-149.504s67.584-149.504 149.504-149.504h372.736c81.92 0 149.504 67.584 149.504 149.504s-67.584 149.504-149.504 149.504zM413.696 615.936c0-47.104-38.912-86.016-86.016-86.016s-86.016 38.912-86.016 86.016 38.912 86.016 86.016 86.016 86.016-38.912 86.016-86.016zM696.32 527.872h-249.856c18.432 24.576 30.72 55.296 30.72 88.064s-10.24 61.44-28.672 86.016h247.808c47.104 0 88.064-38.912 88.064-88.064s-40.96-86.016-88.064-86.016zM700.416 429.568h-372.736c-81.92 0-149.504-67.584-149.504-149.504s67.584-149.504 149.504-149.504h370.688c81.92 0 149.504 67.584 149.504 149.504s-65.536 149.504-147.456 149.504zM696.32 368.128c47.104 0 86.016-38.912 86.016-86.016s-38.912-86.016-86.016-86.016-86.016 38.912-86.016 86.016 38.912 86.016 86.016 86.016zM241.664 282.112c0 47.104 38.912 88.064 88.064 88.064h247.808c-18.432-24.576-28.672-53.248-28.672-86.016s10.24-63.488 30.72-88.064h-251.904c-47.104-2.048-86.016 36.864-86.016 86.016z" />
<glyph unicode="&#xe922;" glyph-name="xcloud035" d="M788.48 763.392h-552.96c-16.384 0-30.72-14.336-30.72-30.72v-571.392c0-16.384 14.336-30.72 30.72-30.72h552.96c16.384 0 30.72 14.336 30.72 30.72v571.392c0 18.432-14.336 30.72-30.72 30.72zM757.76 194.048h-491.52v507.904h288.768v-225.28h120.832v225.28h81.92v-507.904z" />
<glyph unicode="&#xe923;" glyph-name="xcloud036" d="M614.4 427.52c49.152 32.768 79.872 88.064 79.872 151.552 0 100.352-81.92 182.272-182.272 182.272s-182.272-81.92-182.272-182.272c0-61.44 32.768-116.736 79.872-151.552-104.448-40.96-180.224-143.36-180.224-262.144 0-16.384 14.336-30.72 30.72-30.72h503.808c16.384 0 30.72 12.288 30.72 30.72 0 118.784-75.776 221.184-180.224 262.144zM512 697.856c65.536 0 120.832-53.248 120.832-120.832s-53.248-120.832-120.832-120.832-120.832 53.248-120.832 120.832 55.296 120.832 120.832 120.832zM292.864 196.096c14.336 106.496 108.544 190.464 219.136 190.464s204.8-81.92 219.136-190.464h-438.272z" />
<glyph unicode="&#xe924;" glyph-name="xcloud037" d="M512 153.088c-163.84 0-294.912 133.12-294.912 294.912 0 163.84 133.12 294.912 294.912 294.912s294.912-133.12 294.912-294.912-133.12-294.912-294.912-294.912zM512 683.52c-129.024 0-233.472-104.448-233.472-233.472s104.448-233.472 233.472-233.472 233.472 104.448 233.472 233.472-104.448 233.472-233.472 233.472zM512 312.832c-16.384 0-30.72 14.336-30.72 30.72v106.496c0 16.384 14.336 30.72 30.72 30.72s30.72-14.336 30.72-30.72v-106.496c0-18.432-14.336-30.72-30.72-30.72zM512 523.776c-8.192 0-16.384 4.096-22.528 8.192-6.144 6.144-8.192 14.336-8.192 22.528s4.096 16.384 8.192 22.528c12.288 12.288 32.768 12.288 43.008 0 2.048-2.048 2.048-2.048 4.096-4.096 0-2.048 2.048-4.096 2.048-6.144s2.048-4.096 2.048-6.144c0-2.048 0-4.096 0-6.144 0-8.192-4.096-16.384-8.192-22.528-4.096-4.096-12.288-8.192-20.48-8.192z" />
<glyph unicode="&#xe925;" glyph-name="xcloud038" d="M270.336 159.232v577.536h149.504l190.464-313.344v36.864h143.36v-301.056h-145.408l-188.416 299.008v-299.008zM610.304 513.536h143.36v-30.72h-143.36v30.72zM610.304 568.832h143.36v-30.72h-143.36v30.72zM610.304 626.176h143.36v-30.72h-143.36v30.72zM610.304 681.472h143.36v-30.72h-143.36v30.72zM610.304 736.768h143.36v-30.72h-143.36v30.72z" />
<glyph unicode="&#xe926;" glyph-name="xcloud039" d="M829.44 704c-6.144 4.096-14.336 8.192-22.528 8.192-174.080 0-258.048-36.864-296.96-69.632-34.816 34.816-114.688 73.728-294.912 73.728-16.384 0-30.72-14.336-30.72-30.72v-378.88c0-16.384 12.288-30.72 28.672-30.72 208.896-12.288 260.096-69.632 266.24-77.824 2.048-10.24 10.24-18.432 20.48-20.48 4.096 0 6.144 0 8.192 0 12.288 0 22.528 6.144 24.576 14.336 2.048 2.048 45.056 67.584 272.384 79.872 16.384 2.048 28.672 14.336 28.672 30.72l6.144 378.88c0 10.24-4.096 16.384-10.24 22.528zM245.76 333.312v317.44c192.512-4.096 227.328-57.344 231.424-67.584v-307.2c-40.96 26.624-112.64 47.104-231.424 57.344zM774.144 335.36c-120.832-10.24-192.512-34.816-235.52-59.392v307.2c8.192 10.24 49.152 63.488 239.616 67.584l-4.096-315.392z" />
<glyph unicode="&#xe927;" glyph-name="xcloud040" d="M890.88 431.616h-24.576c0 2.048-2.048 6.144-2.048 8.192l-139.264 260.096c-4.096 6.144-10.24 10.24-18.432 10.24h-20.48c-6.144 0-12.288-2.048-16.384-8.192l-55.296-79.872c-6.144-10.24-4.096-22.528 6.144-28.672s22.528-4.096 28.672 6.144l47.104 67.584 77.824-147.456c-20.48 8.192-43.008 14.336-67.584 14.336-61.44 0-114.688-32.768-145.408-79.872-36.864 14.336-71.68 10.24-96.256 0-30.72 49.152-83.968 79.872-147.456 79.872-24.576 0-47.104-4.096-67.584-14.336l77.824 147.456 47.104-67.584c6.144-10.24 18.432-12.288 28.672-6.144s12.288 18.432 6.144 28.672l-55.296 79.872c-4.096 4.096-10.24 8.192-16.384 8.192h-20.48c-8.192 0-14.336-4.096-18.432-10.24l-139.264-260.096c-2.048-2.048-2.048-6.144-2.048-8.192h-24.576c-16.384 0-30.72-14.336-30.72-30.72s14.336-30.72 30.72-30.72h10.24c0-4.096 0-6.144 0-10.24 0-96.256 77.824-174.080 174.080-174.080s174.080 77.824 174.080 174.080c0 12.288-2.048 24.576-4.096 36.864 12.288 4.096 28.672 8.192 49.152 0-4.096-12.288-4.096-24.576-4.096-36.864 0-96.256 77.824-174.080 174.080-174.080s174.080 77.824 174.080 174.080c0 4.096 0 6.144 0 10.24h10.24c16.384 0 30.72 14.336 30.72 30.72s-14.336 30.72-30.72 30.72zM317.44 247.296c-61.44 0-112.64 51.2-112.64 112.64s51.2 112.64 112.64 112.64 112.64-51.2 112.64-112.64-51.2-112.64-112.64-112.64zM706.56 247.296c-61.44 0-112.64 51.2-112.64 112.64 0 12.288 2.048 22.528 6.144 34.816 0 0 0 0 0 0 4.096 4.096 4.096 8.192 6.144 14.336 18.432 36.864 57.344 63.488 100.352 63.488 63.488 0 112.64-51.2 112.64-112.64s-51.2-112.64-112.64-112.64z" />
<glyph unicode="&#xe928;" glyph-name="xcloud041" d="M790.528 97.792h-557.056c-16.384 0-30.72 14.336-30.72 30.72v638.976c0 16.384 14.336 30.72 30.72 30.72h555.008c16.384 0 30.72-14.336 30.72-30.72v-638.976c2.048-16.384-12.288-30.72-28.672-30.72zM264.192 159.232h493.568v577.536h-493.568v-577.536zM344.064 646.656h335.872v-106.496h-335.872v106.496zM395.264 421.376h-30.72c-12.288 0-20.48 8.192-20.48 20.48s8.192 20.48 20.48 20.48h30.72c12.288 0 20.48-8.192 20.48-20.48s-8.192-20.48-20.48-20.48zM526.336 421.376h-30.72c-12.288 0-20.48 8.192-20.48 20.48s8.192 20.48 20.48 20.48h30.72c12.288 0 20.48-8.192 20.48-20.48s-8.192-20.48-20.48-20.48zM659.456 421.376h-30.72c-12.288 0-20.48 8.192-20.48 20.48s8.192 20.48 20.48 20.48h30.72c12.288 0 20.48-8.192 20.48-20.48s-10.24-20.48-20.48-20.48zM395.264 333.312h-30.72c-12.288 0-20.48 8.192-20.48 20.48s8.192 20.48 20.48 20.48h30.72c12.288 0 20.48-8.192 20.48-20.48s-8.192-20.48-20.48-20.48zM526.336 333.312h-30.72c-12.288 0-20.48 8.192-20.48 20.48s8.192 20.48 20.48 20.48h30.72c12.288 0 20.48-8.192 20.48-20.48s-8.192-20.48-20.48-20.48zM659.456 333.312h-30.72c-12.288 0-20.48 8.192-20.48 20.48s8.192 20.48 20.48 20.48h30.72c12.288 0 20.48-8.192 20.48-20.48s-10.24-20.48-20.48-20.48zM395.264 243.2h-30.72c-12.288 0-20.48 8.192-20.48 20.48s8.192 20.48 20.48 20.48h30.72c12.288 0 20.48-8.192 20.48-20.48s-8.192-20.48-20.48-20.48zM526.336 243.2h-30.72c-12.288 0-20.48 8.192-20.48 20.48s8.192 20.48 20.48 20.48h30.72c12.288 0 20.48-8.192 20.48-20.48s-8.192-20.48-20.48-20.48zM659.456 243.2h-30.72c-12.288 0-20.48 8.192-20.48 20.48s8.192 20.48 20.48 20.48h30.72c12.288 0 20.48-8.192 20.48-20.48s-10.24-20.48-20.48-20.48z" />
<glyph unicode="&#xe929;" glyph-name="xcloud042" d="M862.208 802.304c-12.288 12.288-30.72 12.288-43.008 0l-112.64-114.688c-57.344 49.152-133.12 77.824-215.040 77.824-186.368 0-339.968-155.648-339.968-342.016s151.552-339.968 339.968-339.968 342.016 155.648 342.016 342.016c0 83.968-30.72 159.744-81.92 219.136l110.592 114.688c12.288 12.288 12.288 30.72 0 43.008zM770.048 423.424c0-153.6-124.928-278.528-278.528-278.528s-278.528 126.976-278.528 280.576 124.928 278.528 278.528 278.528c65.536 0 124.928-22.528 172.032-61.44l-75.776-77.824c-28.672 18.432-61.44 30.72-98.304 30.72-94.208 0-172.032-77.824-172.032-172.032s77.824-172.032 172.032-172.032c96.256 0 172.032 77.824 172.032 172.032 0 36.864-12.288 69.632-30.72 98.304l75.776 77.824c40.96-47.104 63.488-108.544 63.488-176.128zM602.112 423.424c0-61.44-49.152-110.592-110.592-110.592s-110.592 49.152-110.592 110.592 49.152 110.592 110.592 110.592c18.432 0 36.864-6.144 53.248-14.336l-73.728-73.728c-12.288-12.288-12.288-30.72 0-43.008 4.096-6.144 12.288-8.192 20.48-8.192s16.384 2.048 22.528 8.192l73.728 75.776c10.24-16.384 14.336-34.816 14.336-55.296z" />
<glyph unicode="&#xe92a;" glyph-name="xcloud043" d="M708.608 620.032c-45.056 0-88.064-18.432-120.832-49.152l-198.656-198.656c-20.48-20.48-49.152-32.768-77.824-32.768-59.392 0-108.544 49.152-108.544 108.544s49.152 108.544 108.544 108.544c28.672 0 57.344-12.288 77.824-32.768v0l26.624-26.624c6.144-6.144 14.336-8.192 22.528-8.192s16.384 2.048 22.528 8.192c12.288 12.288 12.288 30.72 0 43.008l-26.624 26.624c-32.768 32.768-75.776 49.152-120.832 49.152-94.208 0-169.984-75.776-169.984-169.984s75.776-169.984 169.984-169.984c45.056 0 88.064 18.432 120.832 49.152v0l198.656 198.656c20.48 20.48 49.152 32.768 77.824 32.768 59.392 0 108.544-49.152 108.544-108.544s-49.152-108.544-108.544-108.544c-28.672 0-57.344 12.288-77.824 32.768l-26.624 26.624c-12.288 12.288-30.72 12.288-43.008 0s-12.288-30.72 0-43.008l26.624-26.624c32.768-32.768 75.776-49.152 120.832-49.152 94.208 0 169.984 75.776 169.984 169.984s-77.824 169.984-172.032 169.984z" />
<glyph unicode="&#xe92b;" glyph-name="xcloud044" d="M786.432 765.44h-548.864c-8.192 0-16.384-2.048-22.528-8.192-4.096-6.144-8.192-14.336-8.192-22.528v-428.032c0-16.384 14.336-30.72 30.72-30.72h245.76v-86.016h-133.12c-16.384 0-30.72-14.336-30.72-30.72s14.336-30.72 30.72-30.72h327.68c16.384 0 30.72 14.336 30.72 30.72s-14.336 30.72-30.72 30.72h-133.12v86.016h241.664c16.384 0 30.72 14.336 30.72 30.72v428.032c0 18.432-14.336 30.72-30.72 30.72zM755.712 339.456h-487.424v364.544h487.424v-364.544zM391.168 456.192c-10.24 2.048-16.384 6.144-22.528 10.24l10.24 22.528c6.144-4.096 12.288-8.192 20.48-10.24s14.336-4.096 22.528-4.096 14.336 2.048 18.432 4.096 6.144 6.144 6.144 10.24c0 2.048-2.048 6.144-4.096 8.192s-6.144 4.096-10.24 4.096c-4.096 2.048-8.192 2.048-14.336 4.096-10.24 2.048-18.432 4.096-24.576 6.144s-12.288 6.144-16.384 10.24c-4.096 6.144-6.144 12.288-6.144 20.48s2.048 14.336 6.144 20.48 10.24 10.24 18.432 14.336 18.432 6.144 30.72 6.144c8.192 0 16.384 0 24.576-2.048s14.336-4.096 20.48-8.192l-10.24-22.528c-12.288 6.144-24.576 10.24-34.816 10.24-8.192 0-14.336-2.048-18.432-4.096s-6.144-6.144-6.144-10.24 2.048-8.192 6.144-10.24c4.096-2.048 12.288-4.096 20.48-6.144 10.24-2.048 18.432-4.096 24.576-6.144s12.288-6.144 16.384-10.24c4.096-4.096 6.144-12.288 6.144-20.48s-2.048-14.336-6.144-20.48-10.24-10.24-18.432-14.336-18.432-6.144-30.72-6.144c-10.24 0-20.48 2.048-28.672 4.096zM690.176 583.168l-43.008-129.024h-30.72l-28.672 88.064-28.672-88.064h-32.768l-43.008 129.024h30.72l28.672-90.112 30.72 90.112h26.624l28.672-92.16 30.72 92.16c0 0 30.72 0 30.72 0z" />
<glyph unicode="&#xe92c;" glyph-name="xcloud045" d="M565.248 333.312c-8.192 0-16.384 0-24.576 2.048-43.008 6.144-81.92 28.672-108.544 65.536-10.24 14.336-8.192 32.768 6.144 43.008s32.768 8.192 43.008-6.144c16.384-22.528 40.96-36.864 67.584-40.96s55.296 2.048 77.824 20.48c4.096 2.048 8.192 6.144 12.288 10.24l81.92 79.872c38.912 40.96 38.912 106.496-2.048 147.456-40.96 38.912-104.448 38.912-145.408 0l-45.056-45.056c-12.288-12.288-30.72-12.288-43.008 0s-12.288 30.72 0 43.008l47.104 47.104c65.536 63.488 165.888 63.488 229.376 0 65.536-63.488 67.584-167.936 4.096-233.472l-81.92-81.92c-6.144-6.144-12.288-10.24-18.432-16.384-30.72-22.528-65.536-34.816-100.352-34.816zM376.832 146.944c-40.96 0-81.92 16.384-114.688 47.104s-49.152 71.68-51.2 116.736c0 45.056 16.384 86.016 47.104 118.784l81.92 81.92c6.144 6.144 12.288 10.24 18.432 16.384 34.816 26.624 79.872 36.864 122.88 30.72s81.92-28.672 108.544-65.536c10.24-14.336 8.192-32.768-6.144-43.008s-32.768-8.192-43.008 6.144c-34.816 45.056-100.352 55.296-145.408 20.48-4.096-2.048-8.192-6.144-12.288-10.24l-79.872-79.872c-18.432-20.48-28.672-45.056-28.672-73.728s12.288-53.248 32.768-73.728c40.96-38.912 104.448-38.912 145.408 0l45.056 45.056c12.288 12.288 30.72 12.288 43.008 0s12.288-30.72 0-43.008l-47.104-47.104c-34.816-30.72-75.776-47.104-116.736-47.104z" />
<glyph unicode="&#xe92d;" glyph-name="xcloud046" d="M512 704c141.312 0 256-114.688 256-256s-114.688-256-256-256-256 114.688-256 256 114.688 256 256 256zM512 765.44c-176.128 0-317.44-141.312-317.44-317.44s141.312-317.44 317.44-317.44 317.44 141.312 317.44 317.44-141.312 317.44-317.44 317.44v0zM591.872 337.408c-8.192 0-16.384 2.048-22.528 8.192l-79.872 79.872c-6.144 6.144-8.192 14.336-8.192 22.528v159.744c0 16.384 14.336 30.72 30.72 30.72s30.72-14.336 30.72-30.72v-147.456l71.68-71.68c12.288-12.288 12.288-30.72 0-43.008-6.144-6.144-14.336-8.192-22.528-8.192z" />
<glyph unicode="&#xe92e;" glyph-name="xcloud047" d="M538.624 122.368h-319.488c-67.584 0-122.88 55.296-122.88 122.88 0 47.104 26.624 90.112 69.632 110.592 12.288 102.4 100.352 182.272 204.8 182.272 90.112 0 169.984-59.392 196.608-143.36 61.44-12.288 108.544-67.584 108.544-133.12 0-77.824-61.44-139.264-137.216-139.264zM370.688 474.624c-77.824 0-143.36-63.488-145.408-143.36v-22.528l-22.528-6.144c-26.624-8.192-45.056-30.72-45.056-59.392 0-32.768 26.624-61.44 61.44-61.44h319.488c40.96 0 75.776 34.816 75.776 75.776s-32.768 73.728-71.68 75.776h-24.576l-4.096 22.528c-14.336 69.632-73.728 118.784-143.36 118.784zM710.656 333.312c-8.192 0-16.384 2.048-22.528 8.192-12.288 12.288-12.288 30.72 0 43.008 20.48 20.48 30.72 47.104 30.72 75.776 0 59.392-47.104 106.496-106.496 106.496-28.672 0-57.344-12.288-77.824-32.768-12.288-12.288-30.72-12.288-43.008-2.048-12.288 12.288-12.288 30.72-2.048 43.008 32.768 34.816 75.776 53.248 122.88 53.248 92.16 0 167.936-75.776 167.936-167.936 0-45.056-18.432-88.064-49.152-118.784-4.096-6.144-12.288-8.192-20.48-8.192zM614.4 652.8c-16.384 0-30.72 14.336-30.72 30.72v59.392c0 16.384 14.336 30.72 30.72 30.72s30.72-14.336 30.72-30.72v-59.392c0-16.384-14.336-30.72-30.72-30.72zM456.704 587.264c-8.192 0-16.384 2.048-22.528 8.192l-43.008 43.008c-12.288 12.288-12.288 30.72 0 43.008s30.72 12.288 43.008 0l43.008-43.008c12.288-12.288 12.288-30.72 0-43.008-4.096-4.096-12.288-8.192-20.48-8.192zM813.056 230.912c-8.192 0-16.384 2.048-22.528 8.192l-43.008 43.008c-12.288 12.288-12.288 30.72 0 43.008s30.72 12.288 43.008 0l43.008-43.008c12.288-12.288 12.288-30.72 0-43.008-4.096-4.096-12.288-8.192-20.48-8.192zM897.024 431.616h-59.392c-16.384 0-30.72 14.336-30.72 30.72s14.336 30.72 30.72 30.72h59.392c16.384 0 30.72-14.336 30.72-30.72s-14.336-30.72-30.72-30.72zM772.096 587.264c-8.192 0-16.384 2.048-22.528 8.192-12.288 12.288-12.288 30.72 0 43.008l43.008 43.008c12.288 12.288 30.72 12.288 43.008 0s12.288-30.72 0-43.008l-43.008-43.008c-6.144-4.096-14.336-8.192-20.48-8.192z" />
<glyph unicode="&#xe92f;" glyph-name="xcloud048" d="M509.952 89.6c-40.96 0-161.792 81.92-243.712 190.464-43.008 57.344-55.296 131.072-34.816 196.608 18.432 55.296 57.344 96.256 106.496 112.64 65.536 20.48 126.976-2.048 174.080-63.488 45.056 61.44 108.544 83.968 174.080 63.488 51.2-16.384 90.112-57.344 106.496-112.64 20.48-67.584 8.192-141.312-34.816-196.608-81.92-108.544-202.752-190.464-243.712-190.464-2.048 0-2.048 0-4.096 0zM483.328 132.608c0 0 0 0 0 0s0 0 0 0zM540.672 132.608c0 0 0 0 0 0s0 0 0 0zM483.328 132.608c0 0 0 0 0 0s0 0 0 0zM540.672 132.608c0 0 0 0 0 0s0 0 0 0zM485.376 136.704c0-2.048-2.048-2.048-2.048-4.096 0 2.048 2.048 4.096 2.048 4.096zM538.624 136.704c0-2.048 2.048-2.048 2.048-4.096 0 2.048-2.048 4.096-2.048 4.096zM385.024 534.016c-8.192 0-18.432-2.048-26.624-4.096-30.72-10.24-55.296-36.864-67.584-71.68-14.336-47.104-6.144-100.352 24.576-141.312 71.68-94.208 165.888-153.6 192.512-163.84 2.048 0 4.096 0 6.144 0 26.624 10.24 120.832 69.632 192.512 163.84 30.72 40.96 40.96 94.208 24.576 141.312-12.288 36.864-36.864 63.488-67.584 71.68v0c-67.584 20.48-108.544-38.912-126.976-77.824-6.144-10.24-16.384-16.384-26.624-16.384s-22.528 6.144-26.624 16.384c-14.336 32.768-47.104 81.92-98.304 81.92zM518.144 671.232c-16.384 0-30.72 14.336-30.72 30.72v73.728c0 16.384 14.336 30.72 30.72 30.72s30.72-14.336 30.72-30.72v-73.728c0-16.384-12.288-30.72-30.72-30.72zM407.552 652.8c-12.288 0-24.576 8.192-28.672 20.48l-24.576 69.632c-6.144 16.384 2.048 32.768 18.432 38.912s32.768-2.048 38.912-18.432l24.576-69.632c6.144-16.384-2.048-32.768-18.432-38.912-4.096-2.048-8.192-2.048-10.24-2.048zM628.736 652.8c-4.096 0-6.144 0-10.24 2.048-16.384 6.144-24.576 22.528-18.432 38.912l24.576 69.632c6.144 16.384 22.528 24.576 38.912 18.432s24.576-22.528 18.432-38.912l-24.576-69.632c-4.096-12.288-16.384-20.48-28.672-20.48z" />
<glyph unicode="&#xe930;" glyph-name="xcloud201" d="M757.76 646.656c0 53.248-43.008 96.256-96.256 96.256s-96.256-43.008-96.256-96.256 43.008-96.256 96.256-96.256 96.256 43.008 96.256 96.256zM661.504 605.696c-22.528 0-40.96 18.432-40.96 40.96s18.432 40.96 40.96 40.96 40.96-18.432 40.96-40.96-18.432-40.96-40.96-40.96zM763.904 536.064c-45.056 0-75.776-32.768-75.776-81.92v-272.384c0-14.336 12.288-26.624 26.624-26.624s26.624 12.288 26.624 26.624v272.384c0 18.432 6.144 26.624 20.48 26.624s20.48-8.192 20.48-26.624v-96.256c0-14.336 12.288-26.624 26.624-26.624s26.624 12.288 26.624 26.624v96.256c4.096 49.152-26.624 81.92-71.68 81.92v0zM552.96 536.064h-137.216c-14.336 0-26.624-12.288-26.624-26.624s12.288-26.624 26.624-26.624h137.216c12.288 0 26.624-14.336 26.624-26.624v-274.432c0-14.336 12.288-26.624 26.624-26.624s28.672 10.24 28.672 26.624v272.384c0 43.008-38.912 81.92-81.92 81.92v0zM512 400.896h-272.384v286.72h272.384c14.336 0 26.624 12.288 26.624 26.624s-12.288 26.624-26.624 26.624h-301.056c-14.336 0-26.624-10.24-26.624-26.624v-342.016c0-14.336 12.288-26.624 26.624-26.624h301.056c14.336 0 26.624 12.288 26.624 26.624s-12.288 28.672-26.624 28.672v0z" />
<glyph unicode="&#xe931;" glyph-name="xcloud202" d="M813.056 720.384h-190.464c-53.248 0-88.064-20.48-108.544-38.912-20.48 18.432-55.296 38.912-108.544 38.912h-190.464c-18.432 0-30.72-12.288-30.72-26.624v-438.272c0-14.336 12.288-26.624 26.624-26.624h190.464c61.44 0 83.968-36.864 86.016-38.912 4.096-8.192 14.336-14.336 24.576-14.336 0 0 0 0 0 0 10.24 0 18.432 6.144 24.576 14.336 0 2.048 22.528 38.912 86.016 38.912h190.464c14.336 0 26.624 12.288 26.624 26.624v438.272c0 14.336-12.288 26.624-26.624 26.624v0zM784.384 284.16h-163.84c-53.248 0-88.064-20.48-108.544-38.912-20.48 18.432-55.296 38.912-108.544 38.912h-163.84v382.976h163.84c51.2 0 73.728-24.576 81.92-34.816v-292.864c0-14.336 12.288-26.624 26.624-26.624s26.624 12.288 26.624 26.624v292.864c8.192 10.24 30.72 34.816 81.92 34.816h163.84v-382.976zM415.744 585.216h-108.544c-14.336 0-26.624-12.288-26.624-26.624s12.288-26.624 26.624-26.624h108.544c14.336 0 26.624 12.288 26.624 26.624 2.048 14.336-10.24 26.624-26.624 26.624zM415.744 448h-108.544c-14.336 0-26.624-12.288-26.624-26.624s12.288-26.624 26.624-26.624h108.544c14.336 0 26.624 12.288 26.624 26.624s-10.24 26.624-26.624 26.624zM579.584 556.544c0-14.336 12.288-26.624 26.624-26.624h110.592c14.336 0 26.624 12.288 26.624 26.624s-12.288 26.624-26.624 26.624h-108.544c-16.384 2.048-28.672-10.24-28.672-26.624zM716.8 448h-108.544c-14.336 0-26.624-12.288-26.624-26.624s12.288-26.624 26.624-26.624h108.544c14.336 0 26.624 12.288 26.624 26.624s-12.288 26.624-26.624 26.624z" />
<glyph unicode="&#xe932;" glyph-name="xcloud203" d="M362.496 515.584c0-18.432-14.336-34.816-34.816-34.816-18.432 0-34.816 14.336-34.816 34.816 0 18.432 14.336 34.816 34.816 34.816 18.432 0 34.816-14.336 34.816-34.816zM464.896 515.584c0-18.432-14.336-34.816-34.816-34.816-18.432 0-34.816 14.336-34.816 34.816 0 18.432 14.336 34.816 34.816 34.816 18.432 0 34.816-14.336 34.816-34.816zM567.296 515.584c0-18.432-14.336-34.816-34.816-34.816s-34.816 14.336-34.816 34.816c0 18.432 14.336 34.816 34.816 34.816s34.816-14.336 34.816-34.816zM675.84 515.584c0 20.48-4.096 40.96-10.24 59.392-8.192 22.528-18.432 43.008-34.816 61.44-40.96 49.152-108.544 83.968-202.752 83.968-143.36 0-245.76-83.968-245.76-202.752 0-102.4 69.632-139.264 129.024-165.888l-14.336-32.768c-6.144-14.336-6.144-32.768 4.096-45.056 8.192-12.288 22.528-18.432 34.816-18.432 2.048 0 4.096 0 6.144 0 0 0 2.048 0 2.048 0 30.72 6.144 59.392 14.336 86.016 22.528 22.528 6.144 43.008 14.336 61.44 22.528 163.84 71.68 184.32 169.984 184.32 215.040v0zM389.12 323.072c-10.24-2.048-20.48-6.144-32.768-8.192l16.384 38.912c6.144 14.336 0 28.672-12.288 34.816-2.048 0-4.096 2.048-6.144 2.048-4.096 2.048-8.192 4.096-12.288 6.144-63.488 30.72-104.448 51.2-104.448 120.832 0 88.064 77.824 147.456 190.464 147.456 47.104 0 88.064-10.24 120.832-30.72 22.528-14.336 40.96-30.72 53.248-51.2s18.432-43.008 18.432-67.584c0-36.864-20.48-116.736-176.128-174.080-16.384-6.144-34.816-12.288-55.296-18.432v0zM839.68 437.76c0 92.16-59.392 161.792-151.552 188.416 12.288-22.528 20.48-45.056 24.576-69.632 45.056-26.624 71.68-67.584 71.68-118.784 0-67.584-38.912-90.112-104.448-120.832-6.144-2.048-12.288-6.144-18.432-8.192-12.288-6.144-18.432-22.528-12.288-34.816l16.384-38.912c-53.248 12.288-96.256 28.672-131.072 45.056-18.432-10.24-40.96-18.432-63.488-26.624 47.104-28.672 114.688-55.296 204.8-75.776 0 0 2.048 0 2.048 0 2.048 0 4.096 0 6.144 0 14.336 0 26.624 6.144 34.816 18.432 10.24 12.288 10.24 30.72 4.096 45.056l-14.336 32.768c61.44 24.576 131.072 61.44 131.072 163.84v0z" />
<glyph unicode="&#xe933;" glyph-name="xcloud204" d="M731.136 749.056h-438.272c-45.056 0-81.92-36.864-81.92-81.92v-327.68c0-45.056 36.864-81.92 81.92-81.92h190.464v-55.296h-135.168c-14.336 0-26.624-12.288-26.624-26.624s12.288-26.624 26.624-26.624h327.68c14.336 0 26.624 12.288 26.624 26.624s-12.288 26.624-26.624 26.624h-137.216v55.296h190.464c45.056 0 81.92 36.864 81.92 81.92v327.68c2.048 45.056-34.816 81.92-79.872 81.92zM292.864 693.76h438.272c14.336 0 26.624-12.288 26.624-26.624v-219.136h-491.52v219.136c0 14.336 12.288 26.624 26.624 26.624v0zM731.136 310.784h-438.272c-14.336 0-26.624 12.288-26.624 26.624v55.296h491.52v-55.296c0-14.336-12.288-26.624-26.624-26.624v0z" />
<glyph unicode="&#xe934;" glyph-name="xcloud205" d="M784.384 243.2h-182.272c-12.288 38.912-49.152 67.584-92.16 67.584s-79.872-28.672-92.16-67.584h-182.272c-14.336 0-26.624-12.288-26.624-26.624s12.288-26.624 26.624-26.624h182.272c12.288-38.912 49.152-67.584 92.16-67.584s79.872 28.672 92.16 67.584h182.272c14.336 0 26.624 12.288 26.624 26.624 2.048 14.336-10.24 26.624-26.624 26.624zM512 175.616c-22.528 0-40.96 18.432-40.96 40.96s18.432 40.96 40.96 40.96 40.96-18.432 40.96-40.96-18.432-40.96-40.96-40.96zM512 339.456c120.832 0 219.136 98.304 219.136 219.136s-98.304 217.088-219.136 217.088-219.136-98.304-219.136-219.136 98.304-217.088 219.136-217.088zM350.208 529.92h135.168v-135.168c-69.632 12.288-122.88 67.584-135.168 135.168zM538.624 396.8v133.12h135.168c-12.288-67.584-65.536-122.88-135.168-133.12zM485.376 718.336v-79.872c0-14.336 12.288-26.624 26.624-26.624s26.624 12.288 26.624 26.624v79.872c67.584-12.288 122.88-65.536 135.168-135.168h-323.584c12.288 69.632 65.536 124.928 135.168 135.168z" />
<glyph unicode="&#xe935;" glyph-name="xcloud206" d="M839.68 310.784c0 18.432-8.192 36.864-20.48 49.152 0 0 0 0 0 0l-98.304 77.824c0 0-6.144 4.096-2.048 14.336 2.048 8.192 26.624 45.056 26.624 90.112v0 69.632c0 26.624-10.24 53.248-26.624 71.68v36.864h-81.92c-26.624 0-53.248-10.24-71.68-26.624-22.528-20.48-36.864-49.152-36.864-81.92v-69.632c0-45.056 24.576-79.872 26.624-90.112 2.048-8.192-2.048-14.336-2.048-14.336l-102.4-77.824c-12.288-12.288-20.48-28.672-20.48-49.152v-96.256c0-22.528 18.432-40.96 40.96-40.96h327.68c22.528 0 40.96 18.432 40.96 40.96v96.256zM784.384 253.44v-10.24c0-8.192-6.144-14.336-14.336-14.336h-272.384c-8.192 0-14.336 6.144-14.336 14.336v61.44c0 8.192 2.048 14.336 8.192 18.432 2.048 2.048 4.096 2.048 4.096 4.096 4.096 4.096 8.192 6.144 14.336 12.288 8.192 8.192 20.48 16.384 30.72 24.576 18.432 14.336 34.816 28.672 43.008 34.816 18.432 16.384 30.72 53.248 12.288 83.968s-18.432 59.392-18.432 59.392v69.632c0 30.72 24.576 55.296 55.296 55.296h55.296l-16.384-16.384c10.24-10.24 16.384-22.528 16.384-38.912v-69.632c0 0 0-28.672-18.432-59.392s-6.144-67.584 12.288-83.968c8.192-6.144 26.624-20.48 43.008-34.816 10.24-8.192 20.48-16.384 30.72-24.576 6.144-4.096 10.24-8.192 14.336-12.288 2.048-2.048 4.096-2.048 4.096-4.096 4.096-4.096 8.192-12.288 8.192-18.432v-47.104l2.048-4.096zM348.16 228.864h-96.256c-8.192 0-14.336 6.144-14.336 14.336v61.44c0 8.192 2.048 14.336 8.192 18.432 2.048 2.048 4.096 2.048 4.096 4.096 4.096 4.096 8.192 6.144 14.336 12.288 8.192 8.192 20.48 16.384 30.72 24.576 18.432 14.336 34.816 28.672 43.008 34.816 18.432 16.384 30.72 53.248 12.288 83.968s-18.432 59.392-18.432 59.392v69.632c0 30.72 24.576 55.296 55.296 55.296h55.296l-16.384-16.384c10.24-10.24 16.384-22.528 16.384-38.912v-69.632c0 0 0-28.672-18.432-59.392-16.384-28.672-6.144-63.488 10.24-81.92l43.008 34.816-4.096 4.096c0 0-6.144 4.096-2.048 14.336 2.048 8.192 26.624 45.056 26.624 90.112v0 67.584c0 26.624-10.24 53.248-26.624 71.68v36.864h-81.92c-26.624 0-53.248-10.24-71.68-26.624-22.528-20.48-36.864-49.152-36.864-81.92v-69.632c0-45.056 24.576-79.872 26.624-90.112 2.048-8.192-2.048-14.336-2.048-14.336l-100.352-77.824c-12.288-12.288-20.48-28.672-20.48-49.152v-96.256c0-22.528 18.432-40.96 40.96-40.96h163.84v55.296h-40.96z" />
</font>
</defs>
</svg>
