<svg width="27" height="21" viewBox="0 0 27 21" fill="none" xmlns="http://www.w3.org/2000/svg">
<path fill-rule="evenodd" clip-rule="evenodd" d="M0 7.5C0 7.10218 0.17779 6.72065 0.494257 6.43934C0.810725 6.15804 1.23995 6 1.6875 6H19.0823C19.5298 6 19.959 6.15804 20.2755 6.43934C20.592 6.72065 20.7698 7.10218 20.7698 7.5C20.7698 7.89783 20.592 8.27936 20.2755 8.56066C19.959 8.84197 19.5298 9 19.0823 9H1.6875C1.23995 9 0.810725 8.84197 0.494257 8.56066C0.17779 8.27936 0 7.89783 0 7.5ZM0 1.5C0 1.10218 0.17779 0.720644 0.494257 0.43934C0.810725 0.158035 1.23995 0 1.6875 0H25.3125C25.7601 0 26.1893 0.158035 26.5057 0.43934C26.8222 0.720644 27 1.10218 27 1.5C27 1.89782 26.8222 2.27936 26.5057 2.56066C26.1893 2.84196 25.7601 3 25.3125 3H1.6875C1.23995 3 0.810725 2.84196 0.494257 2.56066C0.17779 2.27936 0 1.89782 0 1.5ZM0 13.5C0 13.1022 0.17779 12.7206 0.494257 12.4393C0.810725 12.158 1.23995 12 1.6875 12H25.3125C25.7601 12 26.1893 12.158 26.5057 12.4393C26.8222 12.7206 27 13.1022 27 13.5C27 13.8978 26.8222 14.2794 26.5057 14.5607C26.1893 14.842 25.7601 15 25.3125 15H1.6875C1.23995 15 0.810725 14.842 0.494257 14.5607C0.17779 14.2794 0 13.8978 0 13.5ZM0 19.5C0 19.1022 0.17779 18.7206 0.494257 18.4393C0.810725 18.158 1.23995 18 1.6875 18H19.0823C19.5298 18 19.959 18.158 20.2755 18.4393C20.592 18.7206 20.7698 19.1022 20.7698 19.5C20.7698 19.8978 20.592 20.2794 20.2755 20.5607C19.959 20.842 19.5298 21 19.0823 21H1.6875C1.23995 21 0.810725 20.842 0.494257 20.5607C0.17779 20.2794 0 19.8978 0 19.5Z" fill="white"/>
</svg>
