<svg width="18" height="18" viewBox="0 0 18 18" fill="none" xmlns="http://www.w3.org/2000/svg">
<path d="M2.77778 9H1L9 1L17 9H15.2222M2.77778 9V15.2222C2.77778 15.6937 2.96508 16.1459 3.29848 16.4793C3.63187 16.8127 4.08406 17 4.55556 17H13.4444C13.9159 17 14.3681 16.8127 14.7015 16.4793C15.0349 16.1459 15.2222 15.6937 15.2222 15.2222V9" stroke="white" stroke-width="2" stroke-linecap="round" stroke-linejoin="round"/>
<path d="M6.33325 17V11.6666C6.33325 11.1951 6.52055 10.743 6.85395 10.4096C7.18735 10.0762 7.63953 9.88885 8.11103 9.88885H9.88881C10.3603 9.88885 10.8125 10.0762 11.1459 10.4096C11.4793 10.743 11.6666 11.1951 11.6666 11.6666V17" stroke="white" stroke-width="2" stroke-linecap="round" stroke-linejoin="round"/>
</svg>
