<?xml version="1.0" encoding="utf-8"?>
<!-- Generator: Adobe Illustrator 27.7.0, SVG Export Plug-In . SVG Version: 6.00 Build 0)  -->
<svg version="1.1" id="레이어_1" xmlns="http://www.w3.org/2000/svg" xmlns:xlink="http://www.w3.org/1999/xlink" x="0px"
	 y="0px" viewBox="0 0 18 18" style="enable-background:new 0 0 18 18;" xml:space="preserve">
<style type="text/css">
	.st0{fill:#FFFFFF;}
</style>
<path class="st0" d="M17.3,15.8L13.4,12c0.9-1.2,1.4-2.8,1.4-4.3c0-4-3.2-7.2-7.2-7.2c-4,0-7.2,3.2-7.2,7.2c0,4,3.2,7.2,7.2,7.2
	c1.6,0,3.1-0.5,4.3-1.4l3.9,3.9c0.2,0.2,0.5,0.3,0.7,0.3c0.3,0,0.5-0.1,0.7-0.3c0.2-0.2,0.3-0.4,0.3-0.7
	C17.6,16.3,17.5,16,17.3,15.8z M2.5,7.6c0-1,0.3-2,0.9-2.9c0.6-0.8,1.4-1.5,2.3-1.9c0.9-0.4,2-0.5,3-0.3s1.9,0.7,2.6,1.4
	c0.7,0.7,1.2,1.6,1.4,2.6c0.2,1,0.1,2-0.3,3c-0.4,0.9-1,1.7-1.9,2.3c-0.8,0.6-1.8,0.9-2.9,0.9c-1.4,0-2.7-0.5-3.6-1.5
	C3,10.3,2.5,9,2.5,7.6z"/>
<path class="st0" d="M10.8,6.5H8.7V4.4c0-0.3-0.1-0.6-0.3-0.8C8.2,3.4,7.9,3.3,7.6,3.3S7,3.4,6.8,3.6C6.6,3.8,6.5,4.1,6.5,4.4l0,2.2
	H4.4c-0.3,0-0.6,0.1-0.8,0.3C3.4,7,3.3,7.3,3.3,7.6c0,0.3,0.1,0.6,0.3,0.8c0.2,0.2,0.5,0.3,0.8,0.3l2.2,0l0,2.2
	c0,0.3,0.1,0.6,0.3,0.8c0.2,0.2,0.5,0.3,0.8,0.3s0.6-0.1,0.8-0.3c0.2-0.2,0.3-0.5,0.3-0.8V8.6l2.2,0c0.3,0,0.6-0.1,0.8-0.3
	c0.2-0.2,0.3-0.5,0.3-0.8c0-0.3-0.1-0.6-0.3-0.8C11.4,6.6,11.1,6.5,10.8,6.5z"/>
</svg>
