<svg width="132" height="25" viewBox="0 0 132 25" fill="none" xmlns="http://www.w3.org/2000/svg">
<path d="M0.0640001 20V2.12H11.392V5.696H4.36V9.008H10.336V12.608H4.36V16.4H11.656V20H0.0640001ZM14.3172 14.552V11.552H21.1092V14.552H14.3172ZM22.1127 20L27.6567 2.12H32.7927L38.3367 20H33.8247L31.5927 11.072C31.1127 9.296 30.6567 7.16 30.1767 5.336H30.0807C29.6487 7.208 29.1687 9.296 28.7127 11.072L26.4807 20H22.1127ZM25.8807 15.896V12.584H34.5207V15.896H25.8807ZM39.8764 24.968V6.344H43.3564L43.6684 7.664H43.7404C44.8204 6.704 46.1644 6.008 47.5804 6.008C50.8444 6.008 52.9084 8.744 52.9084 12.944C52.9084 17.648 50.1004 20.336 47.1724 20.336C46.0204 20.336 44.9164 19.832 44.0044 18.92L44.1484 21.056V24.968H39.8764ZM46.1644 16.832C47.4604 16.832 48.5164 15.752 48.5164 13.016C48.5164 10.616 47.8204 9.488 46.3084 9.488C45.5164 9.488 44.8684 9.848 44.1484 10.64V16.04C44.8204 16.64 45.5164 16.832 46.1644 16.832ZM55.6733 24.968V6.344H59.1533L59.4653 7.664H59.5373C60.6173 6.704 61.9613 6.008 63.3773 6.008C66.6413 6.008 68.7053 8.744 68.7053 12.944C68.7053 17.648 65.8973 20.336 62.9693 20.336C61.8173 20.336 60.7133 19.832 59.8013 18.92L59.9453 21.056V24.968H55.6733ZM61.9613 16.832C63.2573 16.832 64.3133 15.752 64.3133 13.016C64.3133 10.616 63.6173 9.488 62.1053 9.488C61.3133 9.488 60.6653 9.848 59.9453 10.64V16.04C60.6173 16.64 61.3133 16.832 61.9613 16.832ZM71.4702 20V6.344H74.9502L75.2622 8.72H75.3342C76.3422 6.896 77.8542 6.008 79.2222 6.008C80.0382 6.008 80.4942 6.128 80.8782 6.296L80.1822 9.968C79.6782 9.848 79.2702 9.752 78.6702 9.752C77.6622 9.752 76.4382 10.4 75.7422 12.2V20H71.4702ZM88.0857 20.336C84.6057 20.336 81.3897 17.696 81.3897 13.16C81.3897 8.648 84.6057 6.008 88.0857 6.008C91.5417 6.008 94.7577 8.648 94.7577 13.16C94.7577 17.696 91.5417 20.336 88.0857 20.336ZM88.0857 16.88C89.6697 16.88 90.3897 15.44 90.3897 13.16C90.3897 10.904 89.6697 9.464 88.0857 9.464C86.4777 9.464 85.7577 10.904 85.7577 13.16C85.7577 15.44 86.4777 16.88 88.0857 16.88ZM100.161 20L95.6251 6.344H99.9211L101.577 12.632C101.937 13.976 102.249 15.392 102.609 16.832H102.729C103.065 15.392 103.401 13.976 103.737 12.632L105.417 6.344H109.521L105.105 20H100.161ZM114.325 20.336C111.805 20.336 110.269 18.464 110.269 16.184C110.269 13.304 112.525 11.744 117.853 11.168C117.757 10.064 117.181 9.416 115.789 9.416C114.709 9.416 113.581 9.848 112.213 10.616L110.725 7.808C112.525 6.728 114.469 6.008 116.605 6.008C120.133 6.008 122.125 7.976 122.125 12.248V20H118.645L118.357 18.632H118.237C117.109 19.64 115.837 20.336 114.325 20.336ZM115.789 17.024C116.653 17.024 117.229 16.616 117.853 15.944V13.76C115.189 14.096 114.325 14.888 114.325 15.848C114.325 16.64 114.901 17.024 115.789 17.024ZM129.311 20.336C126.383 20.336 125.423 18.416 125.423 15.56V0.823999H129.695V15.704C129.695 16.616 130.103 16.88 130.439 16.88C130.583 16.88 130.679 16.88 130.919 16.832L131.423 19.976C130.967 20.168 130.271 20.336 129.311 20.336Z" fill="white"/>
</svg>
