<?xml version="1.0" encoding="utf-8"?>
<!-- Generator: Adobe Illustrator 27.7.0, SVG Export Plug-In . SVG Version: 6.00 Build 0)  -->
<svg version="1.1" id="레이어_1" xmlns="http://www.w3.org/2000/svg" xmlns:xlink="http://www.w3.org/1999/xlink" x="0px"
	 y="0px" viewBox="0 0 20 20" style="enable-background:new 0 0 20 20;" xml:space="preserve">
<style type="text/css">
	.st0{fill:#FFFFFF;}
</style>
<g>
	<path class="st0" d="M10,17.5H4.2c-0.6,0-1.3-0.3-1.8-0.7C2,16.3,1.7,15.7,1.7,15V5c0-0.6,0.3-1.3,0.7-1.8c0.5-0.5,1.1-0.7,1.8-0.7
		H10c0.6,0,1.3,0.3,1.8,0.7c0.5,0.5,0.7,1.1,0.7,1.8v1.7c0,0.4-0.4,0.8-0.8,0.8s-0.8-0.4-0.8-0.8V5c0-0.2-0.1-0.5-0.3-0.6
		c-0.1-0.1-0.4-0.3-0.6-0.3H4.2C4,4.1,3.7,4.2,3.6,4.4C3.4,4.5,3.3,4.8,3.3,5v10c0,0.2,0.1,0.5,0.3,0.6c0.1,0.1,0.4,0.3,0.6,0.3H10
		c0.2,0,0.5-0.1,0.6-0.3c0.1-0.1,0.3-0.4,0.3-0.6v-1.7c0-0.4,0.4-0.8,0.8-0.8s0.8,0.4,0.8,0.8V15c0,0.6-0.3,1.3-0.7,1.8
		C11.3,17.2,10.7,17.5,10,17.5z"/>
	<path class="st0" d="M15,13.3c-0.2,0-0.4-0.1-0.6-0.2c-0.3-0.3-0.3-0.8,0-1.1l1.1-1.1H7.5c-0.4,0-0.8-0.4-0.8-0.8s0.4-0.8,0.8-0.8
		h8.1l-1.1-1.1c-0.3-0.3-0.3-0.8,0-1.1c0.3-0.3,0.8-0.3,1.1,0l2.5,2.5c0,0,0,0,0,0c0,0,0,0,0,0v0l0,0c0,0,0,0,0,0l0,0
		c0.1,0.1,0.1,0.2,0.2,0.2c0,0.1,0.1,0.2,0.1,0.3c0,0,0,0,0,0s0,0,0,0s0,0,0,0l0,0v0c0,0,0,0,0,0s0,0,0,0c0,0,0,0,0,0c0,0,0,0,0,0
		c0,0.1,0,0.2-0.1,0.3c0,0.1-0.1,0.2-0.2,0.3c0,0,0,0,0,0l-2.5,2.5C15.4,13.2,15.2,13.3,15,13.3z"/>
</g>
</svg>
