<?xml version="1.0" encoding="utf-8"?>
<!-- Generator: Adobe Illustrator 27.7.0, SVG Export Plug-In . SVG Version: 6.00 Build 0)  -->
<svg version="1.1" id="레이어_1" xmlns="http://www.w3.org/2000/svg" xmlns:xlink="http://www.w3.org/1999/xlink" x="0px"
	 y="0px" viewBox="0 0 20 20" style="enable-background:new 0 0 20 20;" xml:space="preserve">
<style type="text/css">
	.st0{fill:#FFFFFF;}
</style>
<path class="st0" d="M16.3,10.5c-0.1-0.1-0.2-0.3-0.2-0.5s0.1-0.4,0.2-0.5l1-1.1c0.1-0.1,0.2-0.3,0.2-0.4c0-0.2,0-0.3-0.1-0.5
	l-1.5-2.6c-0.1-0.1-0.2-0.2-0.3-0.3c-0.1-0.1-0.3-0.1-0.5-0.1l-1.4,0.3c-0.2,0-0.4,0-0.5-0.1c-0.2-0.1-0.3-0.2-0.3-0.4l-0.5-1.4
	c-0.1-0.2-0.1-0.3-0.3-0.4c-0.1-0.1-0.3-0.1-0.4-0.1h-3c-0.2,0-0.3,0-0.5,0.1C7.8,2.6,7.7,2.7,7.7,2.9L7.3,4.3
	C7.2,4.5,7.1,4.6,6.9,4.7C6.8,4.8,6.6,4.8,6.4,4.8L4.9,4.5c-0.1,0-0.3,0-0.4,0.1C4.3,4.6,4.2,4.7,4.1,4.9L2.6,7.5
	C2.5,7.6,2.5,7.8,2.5,8c0,0.2,0.1,0.3,0.2,0.4l1,1.1C3.8,9.6,3.9,9.8,3.9,10s-0.1,0.4-0.2,0.5l-1,1.1c-0.1,0.1-0.2,0.3-0.2,0.4
	c0,0.2,0,0.3,0.1,0.5l1.5,2.6c0.1,0.1,0.2,0.2,0.3,0.3c0.1,0.1,0.3,0.1,0.5,0.1l1.4-0.3c0.2,0,0.4,0,0.5,0.1
	c0.2,0.1,0.3,0.2,0.3,0.4l0.5,1.4c0.1,0.2,0.2,0.3,0.3,0.4c0.1,0.1,0.3,0.1,0.5,0.1h3c0.2,0,0.3,0,0.4-0.1c0.1-0.1,0.2-0.2,0.3-0.4
	l0.5-1.4c0.1-0.2,0.2-0.3,0.3-0.4c0.2-0.1,0.4-0.1,0.5-0.1l1.4,0.3c0.2,0,0.3,0,0.5-0.1c0.1-0.1,0.3-0.2,0.3-0.3l1.5-2.6
	c0.1-0.1,0.1-0.3,0.1-0.5c0-0.2-0.1-0.3-0.2-0.4L16.3,10.5z M15.1,11.5l0.6,0.7l-1,1.7l-0.9-0.2c-0.5-0.1-1.1,0-1.6,0.3
	c-0.5,0.3-0.8,0.7-1,1.3l-0.3,0.9H9l-0.3-0.9c-0.2-0.5-0.5-1-1-1.3c-0.5-0.3-1.1-0.4-1.6-0.3l-0.9,0.2l-1-1.7l0.6-0.7
	c0.4-0.4,0.6-1,0.6-1.5c0-0.6-0.2-1.1-0.6-1.5L4.2,7.8l1-1.7l0.9,0.2c0.5,0.1,1.1,0,1.6-0.3c0.5-0.3,0.8-0.7,1-1.3L9,3.9h2l0.3,0.9
	c0.2,0.5,0.5,1,1,1.3c0.5,0.3,1.1,0.4,1.6,0.3l0.9-0.2l1,1.7l-0.6,0.7c-0.4,0.4-0.6,1-0.6,1.5C14.6,10.6,14.8,11.1,15.1,11.5z M10,7
	C9.4,7,8.8,7.1,8.3,7.5C7.8,7.8,7.4,8.3,7.2,8.8C6.9,9.4,6.9,10,7,10.6c0.1,0.6,0.4,1.1,0.8,1.6s1,0.7,1.6,0.8
	c0.6,0.1,1.2,0.1,1.8-0.2c0.6-0.2,1-0.6,1.4-1.1c0.3-0.5,0.5-1.1,0.5-1.7c0-0.8-0.3-1.6-0.9-2.2C11.6,7.3,10.8,7,10,7z M10,11.5
	c-0.3,0-0.6-0.1-0.8-0.3c-0.3-0.2-0.4-0.4-0.6-0.7C8.4,10.3,8.4,10,8.5,9.7c0.1-0.3,0.2-0.6,0.4-0.8c0.2-0.2,0.5-0.4,0.8-0.4
	c0.3-0.1,0.6,0,0.9,0.1c0.3,0.1,0.5,0.3,0.7,0.6c0.2,0.3,0.3,0.5,0.3,0.8c0,0.4-0.2,0.8-0.4,1.1S10.4,11.5,10,11.5z"/>
</svg>
