<svg width="24" height="19" viewBox="0 0 24 19" fill="none" xmlns="http://www.w3.org/2000/svg">
<g opacity="0.8">
<path d="M23 0C23.5523 0 24 0.447715 24 1C24 1.55228 23.5523 2 23 2H2C1.44772 2 1 1.55228 1 1C1 0.447715 1.44772 0 2 0H23Z" fill="white"/>
<path d="M23 8.5C23.5523 8.5 24 8.94772 24 9.5C24 10.0523 23.5523 10.5 23 10.5H3.41431L4.53548 11.6212C4.926 12.0117 4.926 12.6449 4.53547 13.0354C4.14494 13.4259 3.51178 13.4259 3.12126 13.0354L0.302643 10.2167C0.219646 10.136 0.150629 10.0409 0.0995655 9.93552C0.044281 9.82143 0.0100403 9.69524 0.00189018 9.56201C-0.0015564 9.50633 -0.000368118 9.45041 0.00545692 9.3949C0.0115948 9.33613 0.0228252 9.27887 0.0386944 9.22358C0.0838776 9.06582 0.168598 8.917 0.292856 8.79274L3.12126 5.96429C3.51178 5.57376 4.14494 5.57375 4.53547 5.96427C4.926 6.35479 4.926 6.98796 4.53548 7.37849L3.41399 8.5H23Z" fill="#FFF000"/>
<path d="M24 18C24 17.4477 23.5523 17 23 17H2C1.44772 17 1 17.4477 1 18C1 18.5523 1.44772 19 2 19H23C23.5523 19 24 18.5523 24 18Z" fill="white"/>
</g>
</svg>
