<svg width="106" height="40" viewBox="0 0 106 40" fill="none" xmlns="http://www.w3.org/2000/svg">
<path d="M31.7073 29.0869H33.4433H98.4918V27.3632H33.4433L31.7073 29.0869Z" fill="#654B9B"/>
<path d="M26.4992 14.508L31.7072 19.1878V27.3632V29.0869L33.4433 27.3632V18.4195H33.4392L26.4992 12.1833L26.4777 12.1638L24.7704 10.6297L24.7632 12.948L26.4992 14.508Z" fill="#1B6E37"/>
<path d="M28.2353 27.3632H26.4992V14.508L24.7632 12.948V27.3632V29.0869H26.4992H28.2353H29.5413H29.9713L28.2353 27.3632Z" fill="#93C652"/>
<path d="M19.5437 10.4559L28.2352 3.89761L29.9712 2.57141V4.65699V29.0869L28.2352 27.3632V5.77916L19.5437 12.5128V10.4559Z" fill="#F4E85C"/>
<path d="M14.3355 21.2947V27.3632H7.06372V29.0869H16.0715V27.3632V19.9164L14.3355 21.2947Z" fill="#DE2814"/>
<path d="M16.0715 19.9164V22.1058L21.2795 18.0554V27.3632L23.0156 29.0869V16.7054V14.5159L21.2795 15.866L16.0715 19.9164Z" fill="#E7700F"/>
<path d="M21.2796 27.3632H19.5435V12.5127V10.4516L17.8076 11.5781V13.635V27.3632V29.0869H21.2796H22.993H23.0156L21.2796 27.3632Z" fill="#F2A916"/>
<mask id="mask0_64_629" style="mask-type:luminance" maskUnits="userSpaceOnUse" x="0" y="0" width="106" height="40">
<path d="M0 0H105.556V40H0V0Z" fill="white"/>
</mask>
<g mask="url(#mask0_64_629)">
<path d="M23.5481 37.2769C23.4012 37.2769 23.2546 37.2711 23.1075 37.2596C20.6313 37.0648 18.8937 35.2624 18.0787 34.2066C16.424 35.0658 14.9342 35.2223 13.6424 34.6703C11.2501 33.6486 10.6193 30.5753 10.5935 30.4448L12.4022 30.0936L11.4979 30.2693L12.4017 30.091C12.4062 30.1134 12.8781 32.3573 14.3762 32.992C15.2717 33.3711 16.4437 33.1111 17.8601 32.2195L18.6704 31.7093L19.151 32.5338C19.166 32.5587 20.7798 35.2474 23.2627 35.4362C24.9993 35.5679 26.8459 34.4603 28.7453 32.1424L29.1803 31.6113L29.8163 31.8761C30.2546 32.0547 31.6008 32.4141 32.5161 31.9237C33.0842 31.619 33.4482 31.021 33.6287 30.0953L35.4378 30.4431C35.1488 31.9262 34.4564 32.968 33.3796 33.5401C32.0897 34.2255 30.6042 34.001 29.7665 33.7792C27.7297 36.1023 25.6417 37.2769 23.5481 37.2769Z" fill="#3E95D2"/>
<path d="M62.3461 16.2396C62.3461 19.1655 61.2425 21.5652 59.035 23.4395C56.7048 25.4203 53.5856 26.4106 49.6766 26.4106H43.9282V13.9224H49.6766V21.9587C51.7306 21.9587 53.3477 21.4871 54.5283 20.5432C55.7851 19.5387 56.4138 18.0626 56.4138 16.1141C56.4138 14.2727 55.77 12.8761 54.4824 11.9248C53.1946 10.9736 51.5926 10.4978 49.6766 10.4978H43.9282V5.84041H49.6307C53.5545 5.84041 56.6817 6.8539 59.0121 8.8801C61.2347 10.8153 62.3461 13.2685 62.3461 16.2396Z" fill="black"/>
<path d="M77.1309 10.4521H63.2427V5.84036H77.1309V10.4521Z" fill="#8E1D51"/>
<path d="M77.085 26.4561H63.2427V13.8765H77.085V18.4198H68.9911V21.8671H77.085V26.4561Z" fill="black"/>
<path d="M98.4916 26.5015H78.5562L82.4651 13.9219H87.8457L85.5692 21.5016H91.0417L85.2013 5.83992H91.1337L98.4916 26.5015Z" fill="black"/>
<path d="M42.6175 5.84039H36.915V18.4199H42.6175V5.84039Z" fill="black"/>
<path d="M39.2177 33.0843H39.7786C40.2197 33.0843 40.5295 33.0083 40.7082 32.8561C40.8866 32.7038 40.976 32.5091 40.976 32.2716C40.976 32.0409 40.8984 31.8452 40.7436 31.6848C40.5886 31.5242 40.2972 31.4438 39.8695 31.4438H39.2177V33.0843ZM36.9189 29.949H40.7233C41.552 29.949 42.1725 30.1446 42.5851 30.5359C42.9976 30.9273 43.204 31.484 43.204 32.2065C43.204 32.9488 42.9792 33.5291 42.5296 33.9471C42.0799 34.3652 41.3935 34.5742 40.4707 34.5742H39.2177V37.3032H36.9189V29.949Z" fill="black"/>
<path d="M44.4014 29.949H46.69V35.4922H50.262V37.3032H44.4014V29.949Z" fill="black"/>
<path d="M55.657 34.4989L54.8395 31.8552L54.0305 34.4989H55.657ZM56.1318 36.0891H53.5334L53.1723 37.3032H50.8354L53.6194 29.949H56.1159L58.899 37.3032H56.5023L56.1318 36.0891Z" fill="black"/>
<path d="M58.3938 29.949H65.3509V31.7649H63.0167V37.3032H60.728V31.7649H58.3938V29.949Z" fill="black"/>
<path d="M66.3965 29.949H72.0549V31.5291H68.6953V32.8133H71.565V34.2983H68.6953V37.3032H66.3965V29.949Z" fill="black"/>
<path d="M75.2887 33.6413C75.2887 34.3837 75.4276 34.9172 75.7054 35.2416C75.9833 35.5659 76.3614 35.7281 76.8397 35.7281C77.3315 35.7281 77.7121 35.5693 77.9816 35.2515C78.2509 34.9338 78.3857 34.3636 78.3857 33.541C78.3857 32.8487 78.245 32.3428 77.9639 32.0234C77.6825 31.7042 77.3011 31.5444 76.8195 31.5444C76.3581 31.5444 75.9876 31.7067 75.7081 32.031C75.4284 32.3554 75.2887 32.8921 75.2887 33.6413ZM73 33.6312C73 32.4306 73.3368 31.496 74.0104 30.827C74.684 30.1582 75.622 29.8238 76.8245 29.8238C78.0573 29.8238 79.0071 30.1523 79.674 30.8095C80.341 31.4667 80.6745 32.3872 80.6745 33.571C80.6745 34.4306 80.5286 35.1354 80.2374 35.6855C79.9461 36.2357 79.5249 36.6637 78.9744 36.9696C78.4236 37.2757 77.7374 37.4287 76.9155 37.4287C76.0802 37.4287 75.3887 37.2966 74.8416 37.0324C74.2941 36.7682 73.8504 36.3501 73.5103 35.7783C73.17 35.2064 73 34.4907 73 33.6312Z" fill="black"/>
<path d="M84.2363 32.9288H85.2013C85.3058 32.9288 85.5078 32.8955 85.8076 32.8285C85.9591 32.7984 86.0829 32.7215 86.1789 32.5978C86.2748 32.4741 86.3229 32.3319 86.3229 32.1713C86.3229 31.9339 86.2472 31.7516 86.0955 31.6245C85.9439 31.4975 85.6594 31.4339 85.2417 31.4339H84.2363V32.9288ZM81.9375 37.3032V29.949H85.752C86.4594 29.949 87 30.0093 87.3738 30.1296C87.7476 30.25 88.0491 30.4733 88.2782 30.7993C88.5072 31.1254 88.6217 31.5226 88.6217 31.9907C88.6217 32.3987 88.5341 32.7507 88.3589 33.0466C88.1835 33.3426 87.9426 33.5826 87.6359 33.7665C87.4404 33.8837 87.1726 33.9806 86.8322 34.0575C87.1047 34.148 87.3033 34.2383 87.428 34.3286C87.5121 34.389 87.6341 34.5178 87.794 34.7153C87.9539 34.9128 88.0608 35.0651 88.1145 35.1722L89.2229 37.3032H86.6368L85.4135 35.0558C85.2586 34.7648 85.1204 34.5759 84.9992 34.489C84.8342 34.3753 84.6473 34.3184 84.4384 34.3184H84.2363V37.3032H81.9375Z" fill="black"/>
<path d="M90.1604 29.949H93.1703L94.3311 34.4237L95.4836 29.949H98.4916V37.3032H96.6172V31.6947L95.173 37.3032H93.4763L92.0348 31.6947V37.3032H90.1604V29.949Z" fill="black"/>
<path d="M91.2478 2.5718H94.3398V3.37894H93.3024V5.84033H92.2852V3.37894H91.2478V2.5718Z" fill="black"/>
<path d="M94.7888 2.5718H96.1265L96.6424 4.56049L97.1546 2.5718H98.4917V5.84033H97.6585V3.34762L97.0167 5.84033H96.2627L95.6219 3.34762V5.84033H94.7888V2.5718Z" fill="black"/>
<path d="M41.4252 20.2386H38.108L36.4492 23.091L38.108 25.9434H41.4252L43.0838 23.091L41.4252 20.2386Z" fill="#9E9E9F"/>
<path d="M41.6907 19.7823H41.4252H38.1079H37.8424L37.7097 20.0106L36.0509 22.863L35.9182 23.0912L36.0509 23.3196L37.7097 26.172L37.8424 26.4004H38.1079H41.4252H41.6907L41.8234 26.172L43.482 23.3196L43.6149 23.0912L43.482 22.863L41.8234 20.0106L41.6907 19.7823ZM41.4252 20.2388L43.0838 23.0912L41.4252 25.9438H38.1079L36.4493 23.0912L38.1079 20.2388H41.4252Z" fill="black"/>
<path d="M38.1078 20.2386L36.4492 23.091L38.1078 25.9434L39.7664 23.091L38.1078 20.2386Z" fill="white"/>
<path d="M39.7665 23.0914L38.1079 25.9438H41.4251L43.0837 23.0914H39.7665Z" fill="#4C4948"/>
<path d="M41.4251 20.2389H38.1079L39.7665 23.0913H43.0837L41.4251 20.2389Z" fill="#9E9E9F"/>
</g>
</svg>
