<svg xmlns="http://www.w3.org/2000/svg" width="109.667" height="89.726" viewBox="0 0 109.667 89.726">
  <g id="mail" transform="translate(5 5)">
    <g id="패스_5573" data-name="패스 5573" transform="translate(-2 -4)" fill="none" stroke-linecap="round" stroke-linejoin="round">
      <path d="M11.967,4H91.7a10,10,0,0,1,9.967,9.966V73.761A10,10,0,0,1,91.7,83.726H11.967A10,10,0,0,1,2,73.761V13.966A10,10,0,0,1,11.967,4Z" stroke="none"/>
      <path d="M 11.96673583984375 4 C 6.485031127929688 4 1.999992370605469 8.484619140625 1.999992370605469 13.96578216552734 L 1.999992370605469 73.76052856445312 C 1.999992370605469 79.24170684814453 6.485031127929688 83.72632598876953 11.96673583984375 83.72632598876953 L 91.70071411132812 83.72632598876953 C 97.18242645263672 83.72632598876953 101.6674652099609 79.24170684814453 101.6674652099609 73.76052856445312 L 101.6674652099609 13.96578216552734 C 101.6674652099609 8.484619140625 97.18242645263672 4 91.70071411132812 4 L 11.96673583984375 4 M 11.96673583984375 -1 L 91.70071411132812 -1 C 93.71573638916016 -1 95.67548370361328 -0.6015243530273438 97.52553558349609 0.1843795776367188 C 99.30435180664062 0.9400177001953125 100.9023513793945 2.019126892089844 102.2751007080078 3.391746520996094 C 103.6478805541992 4.764396667480469 104.7271347045898 6.362289428710938 105.4828796386719 8.141036987304688 C 106.2689208984375 9.991050720214844 106.6674652099609 11.95078277587891 106.6674652099609 13.96578216552734 L 106.6674652099609 73.76052856445312 C 106.6674652099609 75.77552795410156 106.2689208984375 77.73527526855469 105.4828796386719 79.58527374267578 C 104.7271347045898 81.36403656005859 103.6478805541992 82.96192932128906 102.2751007080078 84.33456420898438 C 100.9023513793945 85.70718383789062 99.30437469482422 86.78630828857422 97.52553558349609 87.54194641113281 C 95.67548370361328 88.32785034179688 93.71573638916016 88.72632598876953 91.70071411132812 88.72632598876953 L 11.96673583984375 88.72632598876953 C 9.95172119140625 88.72632598876953 7.991973876953125 88.32785034179688 6.141921997070312 87.54194641113281 C 4.363082885742188 86.78630828857422 2.765098571777344 85.70718383789062 1.392356872558594 84.33456420898438 C 0.01956939697265625 82.96192932128906 -1.059684753417969 81.36403656005859 -1.8154296875 79.58527374267578 C -2.601463317871094 77.73527526855469 -3.000007629394531 75.77552795410156 -3.000007629394531 73.76052856445312 L -3.000007629394531 13.96578216552734 C -3.000007629394531 11.95078277587891 -2.601463317871094 9.991050720214844 -1.8154296875 8.141036987304688 C -1.059684753417969 6.362289428710938 0.01956939697265625 4.764396667480469 1.392356872558594 3.391746520996094 C 2.765098571777344 2.019126892089844 4.36309814453125 0.9400177001953125 6.141921997070312 0.1843795776367188 C 7.991973876953125 -0.6015243530273438 9.95172119140625 -1 11.96673583984375 -1 Z" stroke="none" fill="#fff"/>
    </g>
    <path id="패스_5574" data-name="패스 5574" d="M101.667,6,51.834,40.88,2,6" transform="translate(-2 3.966)" fill="none" stroke="#fff" stroke-linecap="round" stroke-linejoin="round" stroke-width="5"/>
  </g>
</svg>
