<?xml version="1.0" encoding="UTF-8"?>
<!DOCTYPE svg PUBLIC "-//W3C//DTD SVG 1.1//EN" "http://www.w3.org/Graphics/SVG/1.1/DTD/svg11.dtd">
<svg xmlns="http://www.w3.org/2000/svg" version="1.1" width="333px" height="106px" style="shape-rendering:geometricPrecision; text-rendering:geometricPrecision; image-rendering:optimizeQuality; fill-rule:evenodd; clip-rule:evenodd" xmlns:xlink="http://www.w3.org/1999/xlink">
<g><path style="opacity:0.932" fill="#75b142" d="M 209.5,-0.5 C 212.5,-0.5 215.5,-0.5 218.5,-0.5C 225.552,3.79 228.052,10.1233 226,18.5C 222.419,26.2494 216.586,28.7494 208.5,26C 199.18,16.7887 199.513,7.9554 209.5,-0.5 Z"/></g>
<g><path style="opacity:0.971" fill="#75b142" d="M -0.5,67.5 C -0.5,60.5 -0.5,53.5 -0.5,46.5C 7.00468,22.865 23.338,10.0317 48.5,8C 60.4954,7.50013 72.4954,7.33346 84.5,7.5C 84.5,15.1667 84.5,22.8333 84.5,30.5C 73.1618,30.3335 61.8284,30.5001 50.5,31C 31.2208,35.3796 24.0542,47.2129 29,66.5C 31.899,73.7316 37.0657,78.5649 44.5,81C 48.7514,82.1946 53.0848,82.6946 57.5,82.5C 57.5,70.1667 57.5,57.8333 57.5,45.5C 66.5,45.5 75.5,45.5 84.5,45.5C 84.5,65.1667 84.5,84.8333 84.5,104.5C 71.4957,104.667 58.4957,104.5 45.5,104C 22.2315,101.541 6.89817,89.374 -0.5,67.5 Z"/></g>
<g><path style="opacity:0.97" fill="#75b142" d="M 126.5,8.5 C 136.008,7.17747 145.675,7.17747 155.5,8.5C 166.833,40.1667 178.167,71.8333 189.5,103.5C 158.507,104.5 127.507,104.833 96.5,104.5C 102.01,84.7947 107.677,65.128 113.5,45.5C 122.525,45.8315 131.525,45.4982 140.5,44.5C 136.002,32.322 131.335,20.322 126.5,8.5 Z M 139.5,46.5 C 141.284,47.5738 142.451,49.2404 143,51.5C 146.205,60.9496 149.705,70.283 153.5,79.5C 145.862,80.4975 138.196,80.8308 130.5,80.5C 133.498,69.1728 136.498,57.8394 139.5,46.5 Z"/></g>
<g><path style="opacity:0.97" fill="#75b142" d="M 332.5,102.5 C 332.5,103.167 332.5,103.833 332.5,104.5C 301.5,104.5 270.5,104.5 239.5,104.5C 245.323,84.872 250.99,65.2053 256.5,45.5C 265.525,45.8315 274.525,45.4982 283.5,44.5C 278.927,32.2774 274.26,20.1108 269.5,8C 279.167,7.33333 288.833,7.33333 298.5,8C 309.742,39.6268 321.075,71.1268 332.5,102.5 Z M 282.5,46.5 C 283.75,46.5774 284.583,47.244 285,48.5C 288.538,58.9491 292.372,69.2824 296.5,79.5C 288.862,80.4975 281.196,80.8308 273.5,80.5C 276.502,69.1606 279.502,57.8272 282.5,46.5 Z"/></g>
<g><path style="opacity:0.953" fill="#75b142" d="M 223.5,105.5 C 217.5,105.5 211.5,105.5 205.5,105.5C 204.057,81.2152 203.557,56.8818 204,32.5C 210.418,31.3567 216.918,31.19 223.5,32C 224,32.5 224.5,33 225,33.5C 225.13,57.5403 224.63,81.5403 223.5,105.5 Z"/></g>
</svg>
